<?xml version="1.0" encoding="UTF-8"?>
<svg class="animated" version="1.1" viewBox="0 0 500 500" xmlns="http://www.w3.org/2000/svg">
<style>svg#freepik_stories-get-in-touch:not(.animated) .animable {opacity: 0;}svg#freepik_stories-get-in-touch.animated #freepik--character-2--inject-5 {animation: 0.8s 1 forwards ease-in slideLeft,6s Infinite  linear heartbeat;animation-delay: 2.5s,3.3s;opacity: 0}svg#freepik_stories-get-in-touch.animated #freepik--character-1--inject-5 {animation: 1.4s 1 forwards ease-in slideDown,1.5s Infinite  linear wind;animation-delay: 0s,1.4s;}            @keyframes slideLeft {                0% {                    opacity: 0;                    transform: translateX(-30px);                }                100% {                    opacity: 1;                    transform: translateX(0);                }            }                    @keyframes heartbeat {                0% {                    transform: scale(1);                }                10% {                    transform: scale(1.1);                }                30% {                    transform: scale(1);                }                40% {                    transform: scale(1);                }                50% {                    transform: scale(1.1);                }                60% {                    transform: scale(1);                }                100% {                    transform: scale(1);                }            }                    @keyframes slideDown {                0% {                    opacity: 0;                    transform: translateY(-30px);                }                100% {                    opacity: 1;                    transform: translateY(0);                }            }                    @keyframes wind {                0% {                    transform: rotate( 0deg );                }                25% {                    transform: rotate( 1deg );                }                75% {                    transform: rotate( -1deg );                }            }</style>
<g class="animable" style="transform-origin:251.72px 350.29px">
<ellipse class="animable" cx="251.72" cy="350.29" rx="235.28" ry="124.1" fill="#f5f5f5" style="transform-origin:251.72px 350.29px"/>
</g>
<g class="animable" style="transform-origin:263.702px 363.431px">
<path class="animable" d="m400.74 309.58c-16.3 9.41-16.3 24.66 0 34.07s42.71 9.41 59 0 16.29-24.66 0-34.07-42.74-9.41-59 0z" fill="#e6e6e6" style="transform-origin:430.236px 326.615px"/>
<ellipse id="freepik--shadow--inject-5" class="animable" cx="366.08" cy="381.84" rx="64.58" ry="37.28" fill="#e0e0e0" style="transform-origin:366.08px 381.84px"/>
<path id="a" class="animable" d="m57 411.58 6.6 3.81a8.35 8.35 0 0 0 7.54 0l145.52-84c2.08-1.2 2.08-3.15 0-4.35l-6.61-3.81a8.26 8.26 0 0 0-7.53 0l-145.52 84c-2.07 1.2-2.07 3.15 0 4.35z" fill="#e0e0e0" style="transform-origin:136.834px 369.306px"/>
<path class="animable" d="m94 419.63 6.6 3.81a8.35 8.35 0 0 0 7.54 0l124.19-71.44c2.08-1.2 2.08-3.15 0-4.35l-6.6-3.82a8.35 8.35 0 0 0-7.54 0l-124.19 71.45c-2.06 1.2-2.06 3.15 0 4.35z" fill="#e0e0e0" style="transform-origin:163.173px 383.635px"/>
</g>
<g class="animable" style="transform-origin:435.715px 111.09px">
<g class="animable" style="transform-origin:435.715px 82.655px">
<g class="animable" style="transform-origin:435.715px 82.655px">
<polygon class="animable" points="454.46 111.28 452.71 112.32 416.95 91.68 418.69 90.64" fill="#fafafa" style="transform-origin:435.705px 101.48px"/>
<polygon class="animable" points="418.69 90.64 452.71 110.27 452.71 74.65 418.69 55.02" fill="#fff" style="transform-origin:435.7px 82.645px"/>
<path class="animable" d="M413.66,93.57,456,118V72.75L413.66,48.31ZM417,54l35.76,20.65v37.67L417,91.68Z" fill="#f0f0f0" style="transform-origin:434.83px 83.155px"/>
<polygon class="animable" points="416.95 91.68 418.69 90.64 418.69 55.02 416.95 54" fill="#e0e0e0" style="transform-origin:417.82px 72.84px"/>
<polygon class="animable" points="413.66 48.3 415.43 47.29 457.77 71.74 456 72.75" fill="#fafafa" style="transform-origin:435.715px 60.02px"/>
<polygon class="animable" points="457.77 71.74 456 72.75 456 118.02 457.77 117.01" fill="#e0e0e0" style="transform-origin:456.885px 94.88px"/>
</g>
<g class="animable" fill="#f0f0f0" style="transform-origin:435.705px 88.575px">
<polygon class="animable" points="420.02 89.57 451.39 107.68 451.39 98.63 443.54 80.52 438.66 85.05 440.42 92.64 429.59 69.47 420.02 80.52" style="transform-origin:435.705px 88.575px"/>
<path class="animable" d="m439 71.78a5.07 5.07 0 0 1 2.32 4c0 1.48-1 2.08-2.32 1.34a5.12 5.12 0 0 1-2.31-4c-0.05-1.48 0.98-2.12 2.31-1.34z" style="transform-origin:439.004px 74.4412px"/>
</g>
</g>
<g class="animable" style="transform-origin:435.715px 139.525px">
<g class="animable" style="transform-origin:435.715px 139.525px">
<polygon class="animable" points="454.46 168.16 452.71 169.2 416.95 148.55 418.69 147.51" fill="#fafafa" style="transform-origin:435.705px 158.355px"/>
<polygon class="animable" points="418.69 147.51 452.71 167.15 452.71 131.52 418.69 111.9" fill="#fff" style="transform-origin:435.7px 139.525px"/>
<path class="animable" d="M413.66,150.45,456,174.89V129.62l-42.34-24.44ZM417,110.87l35.76,20.65V169.2L417,148.55Z" fill="#f0f0f0" style="transform-origin:434.83px 140.035px"/>
<polygon class="animable" points="416.95 148.55 418.69 147.51 418.69 111.9 416.95 110.87" fill="#e0e0e0" style="transform-origin:417.82px 129.71px"/>
<polygon class="animable" points="413.66 105.18 415.43 104.16 457.77 128.61 456 129.62" fill="#fafafa" style="transform-origin:435.715px 116.89px"/>
<polygon class="animable" points="457.77 128.61 456 129.62 456 174.89 457.77 173.88" fill="#e0e0e0" style="transform-origin:456.885px 151.75px"/>
</g>
<g class="animable" fill="#f0f0f0" style="transform-origin:435.705px 145.45px">
<polygon class="animable" points="420.02 146.44 451.39 164.55 451.39 155.5 443.54 137.39 438.66 141.92 440.42 149.51 429.59 126.35 420.02 137.39" style="transform-origin:435.705px 145.45px"/>
<path class="animable" d="m439 128.65a5.1 5.1 0 0 1 2.32 4c0 1.48-1 2.08-2.32 1.34a5.11 5.11 0 0 1-2.31-4c-0.05-1.48 0.98-2.08 2.31-1.34z" style="transform-origin:439.004px 131.32px"/>
</g>
</g>
</g>
<g class="animable" style="transform-origin:48.4203px 359.772px">
<g class="animable" style="transform-origin:48.4203px 359.772px">
<path class="animable" d="M66.6,400.74c2.47-13.73,3.63-28.95-1-50.35-3.88-18-13.64-33.45-24.88-35.49-4.56-.83-9.24,1.82-10.4,4.6-3.18,7.65,2.66,14.62,5.38,18.1,2,2.6,20.87,21.08,22.45,49.2l.94,16.82c.14.87.9,1.31,1.5.87Z" fill="#6366F1" style="transform-origin:49.0799px 359.704px"/>
<path class="animable" d="M66.6,400.74c2.47-13.73,3.63-28.95-1-50.35-3.88-18-13.64-33.45-24.88-35.49-4.56-.83-9.24,1.82-10.4,4.6-3.18,7.65,2.66,14.62,5.38,18.1,2,2.6,20.87,21.08,22.45,49.2l.94,16.82c.14.87.9,1.31,1.5.87Z" fill="#fff" opacity=".3" style="transform-origin:49.0799px 359.704px"/>
<path class="animable" d="M63.51,394.42a.66.66,0,0,1-.35-.64c.67-35.82-9.84-58.21-25-70.87A.76.76,0,0,1,38,322a.43.43,0,0,1,.69-.19c15.37,12.81,26.16,35.7,25.47,72a.58.58,0,0,1-.51.64Z" fill="#fff" style="transform-origin:51.0528px 358.077px"/>
<path class="animable" d="m60.59 404.49c-1.68 1.19-2.6-1.26-3.44-4.07-2.69-9.06-5.65-13.84-10.7-20.2-6.23-7.83-17-15.06-18.22-21.54-1.08-5.88 3.65-10.41 12.07-7.27 10.11 3.78 23.77 16 23.31 51.19z" fill="#6366F1" style="transform-origin:45.8495px 377.591px"/>
<path class="animable" d="M61.31,400a.64.64,0,0,1-.4-.51c-4.77-27.15-19.84-40.62-26.81-43.29a.72.72,0,0,1-.37-.81c.07-.34.33-.54.61-.43,7.72,2.94,22.68,16.58,27.56,44.3a.63.63,0,0,1-.38.75A.3.3,0,0,1,61.31,400Z" fill="#fff" style="transform-origin:47.8155px 377.477px"/>
</g>
</g>
<g class="animable" style="transform-origin:430.072px 284.593px">
<g id="b" class="animable" style="transform-origin:430.072px 284.593px">
<g class="animable" style="transform-origin:430.072px 290.996px">
<path class="animable" d="M400.45,280.62a1.07,1.07,0,0,1,.63-.87,3.35,3.35,0,0,1,3,0,1.07,1.07,0,0,1,.62.87l-7.6,44.87h0a.76.76,0,0,1-.44.6,2.35,2.35,0,0,1-2.13,0,.74.74,0,0,1-.44-.6h0Z" fill="#455a64" style="transform-origin:399.395px 302.87px"/>
<path class="animable" d="M459.06,280.62a1.07,1.07,0,0,0-.63-.87,3.33,3.33,0,0,0-3,0,1.07,1.07,0,0,0-.63.87l7.6,44.87h0a.76.76,0,0,0,.44.6,2.37,2.37,0,0,0,2.14,0,.78.78,0,0,0,.44-.6h0Z" fill="#455a64" style="transform-origin:460.11px 302.869px"/>
<path class="animable" d="M432.15,284a1.07,1.07,0,0,0-.63-.87,3.33,3.33,0,0,0-3,0,1.07,1.07,0,0,0-.63.87l.63,53.38h0a.76.76,0,0,0,.44.6,2.35,2.35,0,0,0,2.13,0,.74.74,0,0,0,.44-.6h0Z" fill="#455a64" style="transform-origin:430.02px 310.504px"/>
<path class="animable" d="m468.27 265.84c0-5.65-3.7-11.3-11.17-15.61-14.93-8.63-39.16-8.63-54.09 0-7.47 4.31-11.18 10-11.17 15.61v3c0.09 5.58 3.83 11.14 11.21 15.4 14.94 8.62 39.16 8.62 54.09 0 7.38-4.26 11.12-9.82 11.21-15.4z" fill="#6366F1" style="transform-origin:430.095px 267.231px"/>
<path class="animable" d="m468.27 265.84c0-5.65-3.7-11.3-11.17-15.61-14.93-8.63-39.16-8.63-54.09 0-7.47 4.31-11.18 10-11.17 15.61v3c0.09 5.58 3.83 11.14 11.21 15.4 14.94 8.62 39.16 8.62 54.09 0 7.38-4.26 11.12-9.82 11.21-15.4z" fill="#fff" opacity=".4" style="transform-origin:430.095px 267.231px"/>
<path class="animable" d="m403 250.23c-14.94 8.62-14.94 22.61 0 31.23s39.16 8.63 54.09 0 14.94-22.61 0-31.23-39.19-8.63-54.09 0z" fill="#6366F1" style="transform-origin:430.043px 265.845px"/>
<path class="animable" d="m403 250.23c-14.94 8.62-14.94 22.61 0 31.23s39.16 8.63 54.09 0 14.94-22.61 0-31.23-39.19-8.63-54.09 0z" fill="#fff" opacity=".6" style="transform-origin:430.043px 265.845px"/>
</g>
<g class="animable" style="transform-origin:429.924px 250.789px">
<g class="animable" opacity=".05" style="transform-origin:429.773px 263.55px">
<path class="animable" d="m438.4 258.55c4.76 2.75 4.76 7.21 0 10s-12.49 2.75-17.25 0-4.77-7.21 0-10 12.48-2.75 17.25 0z" style="transform-origin:429.773px 263.55px"/>
</g>
<path class="animable" d="M422.18,264.14c-4.15-4.23-6.59-14.81-2.54-18.16h20.59c4,3.35,1.61,13.92-2.53,18.16l-.12.11a.93.93,0,0,1-.14.14l-.37.34-.1.08-.32.23a4.41,4.41,0,0,1-.53.35,13.68,13.68,0,0,1-12.37,0h0c-.18-.11-.36-.22-.54-.35l-.29-.22-.12-.1a3.73,3.73,0,0,1-.36-.32l-.17-.16Z" fill="#ebebeb" style="transform-origin:429.924px 256.424px"/>
<path class="animable" d="m438.44 244.62c4.7 2.72 4.7 7.12 0 9.83s-12.31 2.71-17 0-4.7-7.11 0-9.83 12.31-2.71 17 0z" fill="#fafafa" style="transform-origin:429.942px 249.533px"/>
<path class="animable" d="m435.11 246.55c2.86 1.65 2.86 4.32 0 6a11.44 11.44 0 0 1-10.35 0c-2.86-1.65-2.86-4.32 0-6a11.44 11.44 0 0 1 10.35 0z" fill="#ebebeb" style="transform-origin:429.935px 249.55px"/>
<path class="animable" d="m424.76 249.38a11.44 11.44 0 0 1 10.35 0 4.7 4.7 0 0 1 1.71 1.57 4.54 4.54 0 0 1-1.71 1.57 11.44 11.44 0 0 1-10.35 0 4.54 4.54 0 0 1-1.71-1.57 4.7 4.7 0 0 1 1.71-1.57z" fill="#e0e0e0" style="transform-origin:429.935px 250.95px"/>
<path class="animable" d="M434.48,251a23.48,23.48,0,0,0,3.75-5c1.73-3.06,2-7.16,1.15-7.66s-4.53,3.58-4.53,3.58a22.45,22.45,0,0,0,.38-5.22c-.15-2.73-.82-5.2-1.6-5.7s-2.52,2.94-3.27,5.43-1.19,4.53-1.19,4.53a39.33,39.33,0,0,0-1.35-5.73c-.9-2.58-1.73-3.17-2.37-2.91s-1.06,1.46-1.24,4.9a34.61,34.61,0,0,0,.15,4.93s-1.28-1.41-2.71-2.78-2.23-1.71-2.68-1.42-.57,2.62,1.86,7a24.2,24.2,0,0,0,4.57,6S428.75,253.12,434.48,251Z" fill="#6366F1" style="transform-origin:429.279px 241.44px"/>
</g>
</g>
</g>
<g class="animable" style="transform-origin:129.42px 219.41px">
<g class="animable" style="transform-origin:129.42px 219.41px">
<path class="animable" d="m184.56 31.76-122.2 70.56a12.32 12.32 0 0 0-6.15 10.2v284.12c0 4.18 2.58 9.06 5.76 10.9s8.7 1.63 12.32-0.46l121.78-70.31a14.55 14.55 0 0 0 6.55-11.35v-283.23c0-4.18-2.58-9-5.76-10.89s-8.69-1.63-12.3 0.46z" fill="#6366F1" style="transform-origin:129.415px 219.41px"/>
<path class="animable" d="m184.56 31.76-122.2 70.56a12.32 12.32 0 0 0-6.15 10.2v284.12c0 4.18 2.58 9.06 5.76 10.9s8.7 1.63 12.32-0.46l121.78-70.31a14.55 14.55 0 0 0 6.55-11.35v-283.23c0-4.18-2.58-9-5.76-10.89s-8.69-1.63-12.3 0.46z" opacity=".05" style="transform-origin:129.415px 219.41px"/>
<path class="animable" d="m72.72 407.83c-3.5 1.36-8 1.29-10.74-0.29-3.18-1.84-5.76-6.72-5.76-10.9v-284.12a11.76 11.76 0 0 1 1.66-5.62l10.57 6a12.76 12.76 0 0 0-3 7.63v281.47c-0.06 5 3.12 7.37 7.27 5.83z" fill="#6366F1" style="transform-origin:64.47px 257.846px"/>
<path class="animable" d="m72.72 407.83c-3.5 1.36-8 1.29-10.74-0.29-3.18-1.84-5.76-6.72-5.76-10.9v-284.12a11.76 11.76 0 0 1 1.66-5.62l10.57 6a12.76 12.76 0 0 0-3 7.63v281.47c-0.06 5 3.12 7.37 7.27 5.83z" opacity=".3" style="transform-origin:64.47px 257.846px"/>
<path class="animable" d="M71.17,110.53a12.81,12.81,0,0,0-5.78,10V402c0,5.64,4,8,8.89,5.13l121.8-70.32a14.55,14.55,0,0,0,6.55-11.35V42.19c0-4.16-2.95-5.86-6.55-3.78Z" fill="#6366F1" style="transform-origin:134.01px 222.938px"/>
<path class="animable" d="M71.17,110.53a12.81,12.81,0,0,0-5.78,10V402c0,5.64,4,8,8.89,5.13l121.8-70.32a14.55,14.55,0,0,0,6.55-11.35V42.19c0-4.16-2.95-5.86-6.55-3.78Z" opacity=".15" style="transform-origin:134.01px 222.938px"/>
<path class="animable" d="M75.66,127.46a13.77,13.77,0,0,0-6.23,10.79V390.87c0,4,2.79,5.58,6.23,3.59L190.72,328a13.82,13.82,0,0,0,6.22-10.79V64.62c0-4-2.8-5.57-6.23-3.59Z" fill="#263238" style="transform-origin:133.185px 227.747px"/>
<path class="animable" d="m187.42 310.33v-247.4l-111.76 64.53a13.78 13.78 0 0 0-6.23 10.79v247.4l111.76-64.54a13.79 13.79 0 0 0 6.23-10.78z" fill="#37474f" style="transform-origin:128.425px 224.29px"/>
<path class="animable" d="m123.71 88.18 19-10.94c1.13-0.65 2.05-0.19 2.05 1a4.38 4.38 0 0 1-2.05 3.4l-19 11c-1.13 0.65-2 0.19-2-1a4.4 4.4 0 0 1 2-3.46z" fill="#263238" style="transform-origin:133.235px 84.94px"/>
<path class="animable" d="M156.23,69.38c1.06-.62,1.92-.12,1.92,1.11a4.24,4.24,0,0,1-1.92,3.32c-1.06.61-1.92.12-1.92-1.11A4.24,4.24,0,0,1,156.23,69.38Z" fill="#263238" style="transform-origin:156.23px 71.5928px"/>
<path class="animable" d="M163.92,64.94c1.06-.61,1.92-.11,1.92,1.11a4.24,4.24,0,0,1-1.92,3.33c-1.06.61-1.92.12-1.92-1.11A4.27,4.27,0,0,1,163.92,64.94Z" fill="#263238" style="transform-origin:163.92px 67.1609px"/>
<path class="animable" d="M102.45,100.43c1.06-.61,1.92-.12,1.92,1.11a4.27,4.27,0,0,1-1.92,3.33c-1.06.61-1.92.11-1.92-1.11A4.24,4.24,0,0,1,102.45,100.43Z" fill="#263238" style="transform-origin:102.45px 102.649px"/>
<path class="animable" d="M110.14,96c1.06-.62,1.92-.12,1.92,1.11a4.24,4.24,0,0,1-1.92,3.32c-1.06.62-1.92.12-1.92-1.11A4.24,4.24,0,0,1,110.14,96Z" fill="#263238" style="transform-origin:110.14px 98.215px"/>
</g>
</g>
<g class="animable" style="transform-origin:292.175px 238.314px">
<g class="animable" style="transform-origin:337.27px 212.3px">
<g class="animable" style="transform-origin:337.27px 212.3px">
<path class="animable" d="m355.88 190.26a4.78 4.78 0 0 0-2.16-3.73l-1.75-1a4.79 4.79 0 0 0-4.3 0l-26.86 15.54a4.73 4.73 0 0 0-2.15 3.72v29.56a4.76 4.76 0 0 0 2.15 3.73l1.75 1a4.79 4.79 0 0 0 4.3 0l26.86-15.54a4.74 4.74 0 0 0 2.16-3.73z" fill="#6366F1" style="transform-origin:337.27px 212.305px"/>
<path class="animable" d="M318.66,234.34a4.76,4.76,0,0,0,2.15,3.73l1.75,1a4.8,4.8,0,0,0,3.93.17c-1,.38-1.78-.19-1.78-1.41V208.28a4.36,4.36,0,0,1,.63-2.12l-6-3.5a4.43,4.43,0,0,0-.63,2.12Z" opacity=".2" style="transform-origin:322.575px 221.12px"/>
<path class="animable" d="m355.8 189.65c-0.25-0.92-1.08-1.21-2.07-0.63l-26.87 15.54a4.25 4.25 0 0 0-1.51 1.6l-6.06-3.49a4.38 4.38 0 0 1 1.52-1.61l26.86-15.54a4.79 4.79 0 0 1 4.3 0l1.76 1a4.72 4.72 0 0 1 2.07 3.13z" fill="#fff" opacity=".3" style="transform-origin:337.545px 195.585px"/>
</g>
<path class="animable" d="M349.24,200.34a.58.58,0,0,0-.57,0l-17.56,10.14a.56.56,0,0,0-.28.49v16.66a.58.58,0,0,0,.28.49.6.6,0,0,0,.28.08.6.6,0,0,0,.29-.08L349.24,218a.58.58,0,0,0,.28-.49V200.83A.58.58,0,0,0,349.24,200.34ZM340,215.17,332.54,211l14.85-8.57Zm-2.58-.16L332,225.33V211.94Zm1,.56,1.52.87a.58.58,0,0,0,.28.07.55.55,0,0,0,.49-.28l1.72-2.95,5.54,4.15-15.11,8.72Zm4.58-3.28,5.43-9.35v13.42Z" fill="#fafafa" style="transform-origin:340.175px 214.233px"/>
</g>
<g class="animable" style="transform-origin:292.215px 238.279px">
<g id="d" class="animable" style="transform-origin:292.215px 238.279px">
<path class="animable" d="M310.82,216.24a4.73,4.73,0,0,0-2.15-3.72l-1.75-1a4.72,4.72,0,0,0-4.3,0L275.76,227a4.76,4.76,0,0,0-2.15,3.73v29.55a4.75,4.75,0,0,0,2.15,3.73l1.75,1a4.72,4.72,0,0,0,4.3,0l26.86-15.54a4.73,4.73,0,0,0,2.15-3.72Z" fill="#6366F1" style="transform-origin:292.215px 238.265px"/>
<path class="animable" d="M273.61,260.32a4.75,4.75,0,0,0,2.15,3.73l1.75,1a4.76,4.76,0,0,0,3.93.17c-1,.39-1.78-.18-1.78-1.41V234.26a4.43,4.43,0,0,1,.63-2.12l-6.05-3.49a4.36,4.36,0,0,0-.63,2.12Z" opacity=".2" style="transform-origin:277.525px 247.107px"/>
<path class="animable" d="m310.75 215.63c-0.25-0.91-1.08-1.2-2.07-0.63l-26.87 15.54a4.3 4.3 0 0 0-1.52 1.61l-6.05-3.5a4.35 4.35 0 0 1 1.52-1.6l26.85-15.54a4.75 4.75 0 0 1 4.31 0l1.76 1a4.75 4.75 0 0 1 2.07 3.12z" fill="#fff" opacity=".3" style="transform-origin:292.495px 221.572px"/>
</g>
<path class="animable" d="M304.22,232.51l-8.5,4.91a4.88,4.88,0,0,0-1.85,3.91v6.15c0,1.57.83,2.37,1.85,1.78l4.51-2.61,3.14,3.3a.27.27,0,0,0,.35,0,.79.79,0,0,0,.23-.22,1.43,1.43,0,0,0,.25-.95l-.63-4.09.65-.37a4.88,4.88,0,0,0,1.85-3.91v-6.15C306.07,232.72,305.24,231.92,304.22,232.51Zm.89,8.79a2.33,2.33,0,0,1-.89,1.87l-1.24.72a1,1,0,0,0-.38.49,1.38,1.38,0,0,0-.09.68l.38,2.23-2.11-1.9a.26.26,0,0,0-.35,0l-4.71,2.72c-.49.29-.89-.1-.89-.85v-6.46a2.33,2.33,0,0,1,.89-1.87l8.5-4.91c.49-.28.89.1.89.85Zm-12.31,1.88-.16.09a.86.86,0,0,0-.28.31l-4.11,7,.24-4a.84.84,0,0,0-.07-.61.27.27,0,0,0-.39-.08l-1.16.68c-.61.35-1.1-.13-1.1-1.05v-9.28a2.88,2.88,0,0,1,1.1-2.31l13.62-7.86c.6-.35,1.09.12,1.09,1v5.09c0,.41.22.61.48.46a1.26,1.26,0,0,0,.49-1V226.6c0-1.74-.93-2.63-2.06-2l-13.62,7.87a5.43,5.43,0,0,0-2.06,4.35v9.27c0,1.75.92,2.64,2.06,2l.51-.3-.08,4.61c-.06.34,0,.63.18.72a.29.29,0,0,0,.28,0,.82.82,0,0,0,.28-.3l4.76-8.13h0a1.25,1.25,0,0,0,.48-1C293.28,243.23,293.07,243,292.8,243.18Z" fill="#fafafa" style="transform-origin:295.44px 238.777px"/>
</g>
<g class="animable" style="transform-origin:247.08px 264.329px">
<g class="animable" style="transform-origin:247.08px 264.329px">
<path class="animable" d="m265.69 242.29a4.76 4.76 0 0 0-2.16-3.73l-1.75-1a4.72 4.72 0 0 0-4.3 0l-26.86 15.53a4.76 4.76 0 0 0-2.15 3.73v29.56a4.73 4.73 0 0 0 2.15 3.72l1.75 1a4.72 4.72 0 0 0 4.3 0l26.86-15.53a4.78 4.78 0 0 0 2.16-3.73z" fill="#6366F1" style="transform-origin:247.08px 264.33px"/>
<path class="animable" d="M228.47,286.37a4.73,4.73,0,0,0,2.15,3.72l1.75,1a4.8,4.8,0,0,0,3.93.18c-1,.38-1.78-.19-1.78-1.42V260.31a4.36,4.36,0,0,1,.63-2.12l-6.05-3.5a4.36,4.36,0,0,0-.63,2.12Z" opacity=".2" style="transform-origin:232.385px 273.148px"/>
<path class="animable" d="m265.61 241.67c-0.25-0.91-1.08-1.2-2.07-0.63l-26.87 15.54a4.2 4.2 0 0 0-1.51 1.61l-6.06-3.5a4.43 4.43 0 0 1 1.52-1.6l26.86-15.54a4.79 4.79 0 0 1 4.3 0l1.76 1a4.75 4.75 0 0 1 2.07 3.12z" fill="#fff" opacity=".3" style="transform-origin:247.355px 247.615px"/>
</g>
<g class="animable" style="transform-origin:249.955px 266.46px">
<path class="animable" d="M254.08,276.92h-.15c-6-.51-10.16-4.57-12.5-12.05a8.61,8.61,0,0,1,2.12-8.13A2,2,0,0,1,245,256h0c1.31,0,3.51,3.66,3.56,5.11a5.13,5.13,0,0,1-.95,2.88,3.35,3.35,0,0,0-.44,3.07c.71,2.06,1.88,3.15,3.57,3.36.44.05.83-.37,1.14-1.26.52-1.51,1.16-2.4,2-2.72a2,2,0,0,1,1.7.13l.27.13a13.63,13.63,0,0,1,1.39.76h0l.24.15c.84.51,1.57,1.13,1.16,3.16s-2,5.15-3.48,6a.49.49,0,0,1-.19.07l-.14,0A3.27,3.27,0,0,1,254.08,276.92ZM245,257.09c-.12,0-.34.15-.59.42a7.46,7.46,0,0,0-1.87,7c2.22,7.09,6,10.77,11.52,11.24a1.47,1.47,0,0,0,.5-.07l.1,0c1.06-.67,2.45-3.19,2.86-5.18.28-1.41-.08-1.63-.64-2l-.28-.17h0a11.65,11.65,0,0,0-1.26-.69l-.28-.14a.84.84,0,0,0-.76-.09c-.32.13-.81.59-1.31,2-.63,1.83-1.63,2.11-2.34,2-2.14-.26-3.66-1.65-4.51-4.12a4.44,4.44,0,0,1,.54-4,4,4,0,0,0,.79-2.24C247.39,260,245.52,257.25,245,257.09Z" fill="#fafafa" style="transform-origin:249.955px 266.46px"/>
</g>
</g>
</g>
<g class="animable" style="transform-origin:291.985px 128.841px">
<g id="c" class="animable" style="transform-origin:291.985px 128.841px">
<path class="animable" d="M346.42,23.6,230.68,90.33a5.75,5.75,0,0,0-2.6,4.51V228.67a5.74,5.74,0,0,0,2.61,4.5l1.63.93a5.79,5.79,0,0,0,5.21,0l115.74-66.84a5.76,5.76,0,0,0,2.61-4.51V29a5.71,5.71,0,0,0-2.62-4.5l-1.62-.93A5.78,5.78,0,0,0,346.42,23.6Z" fill="#e0e0e0" style="transform-origin:291.98px 128.841px"/>
<path class="animable" d="M355.88,162.92c0,2.29-1.61,3.75-3.61,4.9L238.53,233.5c-2,1.14-3.6.22-3.6-2.08V99.89h0a7.16,7.16,0,0,1,3.58-6.21L352.27,28a2.41,2.41,0,0,1,3.61,2.08h0Z" fill="#fafafa" style="transform-origin:295.405px 130.834px"/>
<path class="animable" d="M353.47,28.65h0a1.4,1.4,0,0,1,1.4,1.4V162.92c0,1.56-.95,2.8-3.1,4L238,232.63a2.39,2.39,0,0,1-1.11.36c-.86,0-1-1-1-1.57V99.89A6.18,6.18,0,0,1,239,94.55L352.77,28.84a1.37,1.37,0,0,1,.7-.19m0-1a2.34,2.34,0,0,0-1.2.33L238.51,93.68a7.16,7.16,0,0,0-3.58,6.21V231.42c0,1.63.81,2.57,2,2.57a3.29,3.29,0,0,0,1.61-.49l113.74-65.68c2-1.15,3.61-2.61,3.61-4.9V30.05a2.42,2.42,0,0,0-2.41-2.41Z" fill="#e0e0e0" style="transform-origin:295.41px 130.815px"/>
<path class="animable" d="M355.88,29v1A2.41,2.41,0,0,0,352.27,28L238.51,93.68a7.08,7.08,0,0,0-2.62,2.62l0,.08-7-4.06a5.39,5.39,0,0,1,1.88-2L346.42,23.6a5.73,5.73,0,0,1,5.21,0l1.63.93A5.73,5.73,0,0,1,355.88,29Z" fill="#f0f0f0" style="transform-origin:292.385px 59.6768px"/>
<path class="animable" d="M249.39,124c-.07,0-.12,0-.16,0l-.08-.08-1.72-3v3.9a.54.54,0,0,1-.05.21.24.24,0,0,1-.12.14l-.49.29c-.05,0-.09,0-.12,0a.21.21,0,0,1-.05-.15v-6.11a.54.54,0,0,1,.05-.21.24.24,0,0,1,.12-.14l.43-.25c.07,0,.12,0,.16,0l.08.09,1.72,2.94v-3.9a.54.54,0,0,1,.05-.21.28.28,0,0,1,.12-.14l.49-.29a.1.1,0,0,1,.12,0,.21.21,0,0,1,.05.15v6.12a.54.54,0,0,1-.05.21.33.33,0,0,1-.12.14Z" fill="#455a64" style="transform-origin:248.295px 121.265px"/>
<path class="animable" d="M250.89,119.39a2.88,2.88,0,0,1,.12-.49,2.83,2.83,0,0,1,.25-.57,3,3,0,0,1,.4-.56,2.17,2.17,0,0,1,.55-.45,1.33,1.33,0,0,1,.56-.19.56.56,0,0,1,.44.12.93.93,0,0,1,.28.46,2.89,2.89,0,0,1,.1.8v2.78a.54.54,0,0,1-.05.21c0,.07-.07.12-.12.14l-.47.27a.08.08,0,0,1-.11,0,.17.17,0,0,1-.05-.15v-.31a2.72,2.72,0,0,1-.38.68,1.79,1.79,0,0,1-.61.55,1.21,1.21,0,0,1-.48.17.48.48,0,0,1-.35-.11.87.87,0,0,1-.22-.34,1.75,1.75,0,0,1-.07-.55,2.42,2.42,0,0,1,.3-1.19,3.37,3.37,0,0,1,.8-1l1-.84c0-.26-.06-.41-.17-.46a.51.51,0,0,0-.41.08,1,1,0,0,0-.24.2,2.29,2.29,0,0,0-.17.28.55.55,0,0,1-.1.16.28.28,0,0,1-.1.09l-.57.33s-.08,0-.11,0S250.89,119.46,250.89,119.39Zm1,2.08a1.56,1.56,0,0,0,.37-.31,1.91,1.91,0,0,0,.28-.4,2.5,2.5,0,0,0,.16-.43,1.64,1.64,0,0,0,.06-.42v-.1l-.84.71a1.45,1.45,0,0,0-.36.41.71.71,0,0,0-.11.4c0,.14,0,.21.13.22A.5.5,0,0,0,251.92,121.47Z" fill="#455a64" style="transform-origin:252.135px 119.988px"/>
<path class="animable" d="M255.2,116.16a2.47,2.47,0,0,1,.36-.62,1.36,1.36,0,0,1,.44-.4.82.82,0,0,1,.63-.15.75.75,0,0,1,.39.36,3.57,3.57,0,0,1,.19-.45,3,3,0,0,1,.25-.4,2.21,2.21,0,0,1,.28-.32A2.47,2.47,0,0,1,258,114a.86.86,0,0,1,.59-.15.58.58,0,0,1,.38.26,1.63,1.63,0,0,1,.2.59,5,5,0,0,1,.06.81V118a.54.54,0,0,1-.05.21.42.42,0,0,1-.12.14l-.47.27a.08.08,0,0,1-.11,0,.17.17,0,0,1-.05-.15V116a1.35,1.35,0,0,0-.16-.81c-.11-.11-.26-.1-.45,0a1,1,0,0,0-.42.49,2.25,2.25,0,0,0-.19,1v2.54a.54.54,0,0,1-.05.21.24.24,0,0,1-.12.14l-.46.27s-.09,0-.12,0a.25.25,0,0,1-.05-.16v-2.5a1.26,1.26,0,0,0-.16-.8q-.17-.16-.45,0a1.17,1.17,0,0,0-.43.51,2.29,2.29,0,0,0-.18,1v2.5a.46.46,0,0,1-.16.35l-.47.27a.11.11,0,0,1-.12,0,.21.21,0,0,1,0-.15v-4.41a.54.54,0,0,1,0-.21.35.35,0,0,1,.12-.14l.47-.28a.09.09,0,0,1,.11,0,.2.2,0,0,1,0,.15Z" fill="#455a64" style="transform-origin:256.828px 117.436px"/>
<path class="animable" d="M259.89,115.44a5.45,5.45,0,0,1,.11-1.06,5.18,5.18,0,0,1,.3-1,3.61,3.61,0,0,1,.48-.81,2,2,0,0,1,.62-.56,1,1,0,0,1,.63-.17.71.71,0,0,1,.47.25,1.56,1.56,0,0,1,.31.59,3.17,3.17,0,0,1,.1.86V114a.41.41,0,0,1-.05.21.37.37,0,0,1-.11.15l-2.06,1.18a.85.85,0,0,0,.06.35.38.38,0,0,0,.16.19.34.34,0,0,0,.23,0,.77.77,0,0,0,.26-.1,1.16,1.16,0,0,0,.32-.24,1.31,1.31,0,0,0,.2-.28l.11-.16a.4.4,0,0,1,.12-.1l.49-.28q.08,0,.12,0s.05.08.05.16a1.38,1.38,0,0,1-.1.39,3,3,0,0,1-.26.56,4.58,4.58,0,0,1-.44.6,2.92,2.92,0,0,1-.61.49,1.06,1.06,0,0,1-.62.17.64.64,0,0,1-.48-.25,1.54,1.54,0,0,1-.3-.63A4,4,0,0,1,259.89,115.44Zm1.51-2.29a1.08,1.08,0,0,0-.3.26,1.15,1.15,0,0,0-.21.33,1.78,1.78,0,0,0-.14.36,2.33,2.33,0,0,0-.06.33l1.39-.8a1.26,1.26,0,0,0,0-.27.46.46,0,0,0-.11-.22.26.26,0,0,0-.21-.09A.61.61,0,0,0,261.4,113.15Z" fill="#455a64" style="transform-origin:261.4px 114.564px"/>
<path class="animable" d="M268.94,91a2.15,2.15,0,0,0-.56.47,2.85,2.85,0,0,0-.37.6,4.11,4.11,0,0,0-.21.68c0,.24-.08.48-.1.73s0,.32,0,.56v.72c0,.25,0,.49,0,.72s0,.41,0,.54a3.38,3.38,0,0,0,.1.61,1.13,1.13,0,0,0,.21.44.52.52,0,0,0,.38.17,1,1,0,0,0,.55-.18,2.18,2.18,0,0,0,.49-.37,2.22,2.22,0,0,0,.39-.51,3.12,3.12,0,0,0,.27-.67,3.58,3.58,0,0,0,.09-.83l-.82.48a.15.15,0,0,1-.19,0,.36.36,0,0,1-.08-.25v-1.6a.88.88,0,0,1,.08-.34.56.56,0,0,1,.19-.23l2.38-1.37a.15.15,0,0,1,.19,0,.36.36,0,0,1,.07.25v1.93a7.28,7.28,0,0,1-.23,1.88,8.12,8.12,0,0,1-.65,1.69,6.67,6.67,0,0,1-1,1.38,4.87,4.87,0,0,1-1.21,1,2.58,2.58,0,0,1-1.26.4,1.39,1.39,0,0,1-.95-.34,2.09,2.09,0,0,1-.6-1,5.53,5.53,0,0,1-.25-1.44c0-.41,0-.85,0-1.32s0-.94,0-1.38a8.78,8.78,0,0,1,.24-1.72,8.67,8.67,0,0,1,.61-1.66,6.59,6.59,0,0,1,.95-1.43,4.87,4.87,0,0,1,1.26-1.06,2.63,2.63,0,0,1,1.24-.4,1.59,1.59,0,0,1,.94.24,1.87,1.87,0,0,1,.6.7,2.56,2.56,0,0,1,.24,1,.66.66,0,0,1-.06.27.52.52,0,0,1-.16.19l-1.31.75c-.1.06-.18.06-.23,0l-.16-.18a.82.82,0,0,0-.38-.28Q269.43,90.77,268.94,91Z" fill="#6366F1" style="transform-origin:268.926px 94.0238px"/>
<path class="animable" d="M274.53,93.07a1.2,1.2,0,0,0,.09.53.42.42,0,0,0,.21.24.44.44,0,0,0,.28,0,1.2,1.2,0,0,0,.31-.13,2,2,0,0,0,.47-.36,1.84,1.84,0,0,0,.29-.42l.15-.27a.63.63,0,0,1,.17-.13l1.28-.74c.14-.08.22,0,.22.21a2.53,2.53,0,0,1-.15.64,6.17,6.17,0,0,1-.46,1,7.45,7.45,0,0,1-.8,1.14,4.55,4.55,0,0,1-1.17,1,2.33,2.33,0,0,1-1.14.37,1.09,1.09,0,0,1-.83-.32,2.16,2.16,0,0,1-.52-1,6.76,6.76,0,0,1-.17-1.62,9,9,0,0,1,.17-1.72,7.5,7.5,0,0,1,.52-1.6,5.63,5.63,0,0,1,.83-1.33,4.2,4.2,0,0,1,1.14-1,1.94,1.94,0,0,1,1.22-.34,1.3,1.3,0,0,1,.83.49,2.53,2.53,0,0,1,.46,1.06,6.09,6.09,0,0,1,.14,1.38v.42A.78.78,0,0,1,278,91a.57.57,0,0,1-.19.23Zm.89-3.42a1.47,1.47,0,0,0-.63.75,3,3,0,0,0-.26,1l1.77-1a1.2,1.2,0,0,0-.25-.7C275.9,89.5,275.69,89.5,275.42,89.65Z" fill="#6366F1" style="transform-origin:275.417px 91.684px"/>
<path class="animable" d="M281.28,89.18a.9.9,0,0,0,.1.48c.07.09.17.09.33,0l.78-.45a.14.14,0,0,1,.19,0,.33.33,0,0,1,.08.24V91a.8.8,0,0,1-.08.33.45.45,0,0,1-.19.23l-.93.54a1.73,1.73,0,0,1-.84.28.91.91,0,0,1-.65-.21,1.52,1.52,0,0,1-.41-.71,3.8,3.8,0,0,1-.15-1.16V87.75l-.73.42a.14.14,0,0,1-.18,0,.29.29,0,0,1-.08-.24V86.38a.67.67,0,0,1,.08-.33.49.49,0,0,1,.18-.23l.73-.42V82.93a.8.8,0,0,1,.08-.33.45.45,0,0,1,.19-.23l1.24-.72a.13.13,0,0,1,.18,0,.31.31,0,0,1,.08.24v2.47l1.11-.65a.15.15,0,0,1,.19,0,.33.33,0,0,1,.08.24v1.53a.8.8,0,0,1-.08.33.45.45,0,0,1-.19.23l-1.11.64Z" fill="#6366F1" style="transform-origin:280.639px 86.9981px"/>
<path class="animable" d="M287.45,79.57a.88.88,0,0,1-.08.34.49.49,0,0,1-.19.23l-1.24.71a.14.14,0,0,1-.18,0,.33.33,0,0,1-.08-.24V79.07a.84.84,0,0,1,.08-.34.54.54,0,0,1,.18-.23l1.24-.71c.08,0,.14,0,.19,0a.33.33,0,0,1,.08.24Zm0,8.71a.8.8,0,0,1-.08.33.41.41,0,0,1-.19.23l-1.24.72a.14.14,0,0,1-.18,0,.34.34,0,0,1-.08-.25v-7a.84.84,0,0,1,.08-.34.54.54,0,0,1,.18-.23l1.24-.71c.08,0,.14,0,.19,0a.33.33,0,0,1,.08.24Z" fill="#6366F1" style="transform-origin:286.565px 83.6914px"/>
<path class="animable" d="M293.84,84.6a.8.8,0,0,1-.08.33.57.57,0,0,1-.19.23l-1.24.71a.15.15,0,0,1-.19,0,.33.33,0,0,1-.08-.24V81.79a1.56,1.56,0,0,0-.2-.93c-.14-.18-.36-.19-.65,0a1.5,1.5,0,0,0-.65.77,3.2,3.2,0,0,0-.2,1.16V86.6a.67.67,0,0,1-.08.33.49.49,0,0,1-.18.23l-1.24.72c-.08,0-.14,0-.19,0a.37.37,0,0,1-.08-.25V80.56a.8.8,0,0,1,.08-.33.45.45,0,0,1,.19-.23l1.19-.68a.14.14,0,0,1,.19,0,.33.33,0,0,1,.07.24v.35c.06-.13.12-.28.2-.43a2.52,2.52,0,0,1,.29-.46,3.86,3.86,0,0,1,.38-.44,2.58,2.58,0,0,1,.52-.38,2.06,2.06,0,0,1,.87-.3.91.91,0,0,1,.67.24,1.8,1.8,0,0,1,.44.83,5.7,5.7,0,0,1,.16,1.45Z" fill="#6366F1" style="transform-origin:291.215px 82.8892px"/>
<path class="animable" d="M299.18,78.85a.82.82,0,0,0,.1.48c.06.09.17.09.32,0l.79-.46a.14.14,0,0,1,.18,0,.29.29,0,0,1,.08.24v1.53a.67.67,0,0,1-.08.33.49.49,0,0,1-.18.23l-.94.54a1.85,1.85,0,0,1-.84.28.85.85,0,0,1-.64-.22,1.44,1.44,0,0,1-.42-.7,3.87,3.87,0,0,1-.14-1.16V77.41l-.73.42a.14.14,0,0,1-.19,0,.33.33,0,0,1-.08-.24V76.05a.8.8,0,0,1,.08-.33.5.5,0,0,1,.19-.23l.73-.42V72.6a.78.78,0,0,1,.07-.33.51.51,0,0,1,.19-.23l1.24-.72a.15.15,0,0,1,.19,0,.34.34,0,0,1,.08.25V74l1.11-.64a.15.15,0,0,1,.19,0,.33.33,0,0,1,.07.24v1.53a.78.78,0,0,1-.07.33.57.57,0,0,1-.19.23l-1.11.64Z" fill="#6366F1" style="transform-origin:298.531px 76.6543px"/>
<path class="animable" d="M306.62,73.11c0,.14,0,.34,0,.57s0,.44,0,.59a6.37,6.37,0,0,1-.21,1.49,7,7,0,0,1-.54,1.43,6.17,6.17,0,0,1-.83,1.23,4.39,4.39,0,0,1-1.09.9,2.23,2.23,0,0,1-1.09.35,1.21,1.21,0,0,1-.83-.27,1.77,1.77,0,0,1-.54-.8,4,4,0,0,1-.22-1.24c0-.14,0-.34,0-.57s0-.44,0-.59a6.52,6.52,0,0,1,.21-1.49,6.94,6.94,0,0,1,.54-1.42,6.43,6.43,0,0,1,.84-1.24,4.23,4.23,0,0,1,1.09-.91,2.23,2.23,0,0,1,1.09-.35,1.26,1.26,0,0,1,.83.28,1.63,1.63,0,0,1,.54.8A3.78,3.78,0,0,1,306.62,73.11ZM303,76.27a1,1,0,0,0,.27.74.56.56,0,0,0,.64,0,1.63,1.63,0,0,0,.63-.69,2.59,2.59,0,0,0,.27-1.06,4.35,4.35,0,0,0,0-.53,3.78,3.78,0,0,0,0-.5,1,1,0,0,0-.27-.74c-.16-.13-.37-.12-.63,0a1.65,1.65,0,0,0-.64.69,2.55,2.55,0,0,0-.27,1.06c0,.15,0,.33,0,.52S303,76.12,303,76.27Z" fill="#6366F1" style="transform-origin:303.945px 75.2306px"/>
<path class="animable" d="M307.5,69.65a.8.8,0,0,1,.08-.33.44.44,0,0,1,.18-.23l1.25-.72a.14.14,0,0,1,.18,0,.36.36,0,0,1,.08.25v3.83a1.76,1.76,0,0,0,.19.94c.12.19.33.2.62,0a1.35,1.35,0,0,0,.61-.75,3.35,3.35,0,0,0,.18-1.15V67.7a.8.8,0,0,1,.08-.33.51.51,0,0,1,.19-.23l1.24-.72a.15.15,0,0,1,.19,0,.37.37,0,0,1,.07.25v7.06a.78.78,0,0,1-.07.33.57.57,0,0,1-.19.23l-1.14.66a.15.15,0,0,1-.19,0,.33.33,0,0,1-.08-.24v-.35a3.25,3.25,0,0,1-.19.44,2.76,2.76,0,0,1-.28.45,3.85,3.85,0,0,1-.39.44,2.58,2.58,0,0,1-.52.38c-.64.37-1.15.38-1.52,0a3.19,3.19,0,0,1-.57-2.3Z" fill="#6366F1" style="transform-origin:310.056px 71.3687px"/>
<path class="animable" d="M315.35,68.11c0,.16,0,.35,0,.55s0,.37,0,.52a1,1,0,0,0,.27.72c.15.13.36.12.62,0a1.54,1.54,0,0,0,.5-.43,2,2,0,0,0,.28-.56,1.81,1.81,0,0,1,.12-.28.4.4,0,0,1,.17-.19l1.29-.75a.17.17,0,0,1,.19,0,.31.31,0,0,1,.07.25,4.3,4.3,0,0,1-.13.79,5.08,5.08,0,0,1-.41,1.16,6.08,6.08,0,0,1-.8,1.27,4.4,4.4,0,0,1-1.28,1.08,2.39,2.39,0,0,1-1,.35,1.27,1.27,0,0,1-.84-.22,1.63,1.63,0,0,1-.57-.76,3.77,3.77,0,0,1-.23-1.32c0-.14,0-.34,0-.6s0-.45,0-.61a6.42,6.42,0,0,1,.23-1.58,6.88,6.88,0,0,1,.57-1.43,6,6,0,0,1,.84-1.18,4.38,4.38,0,0,1,1-.83,2.31,2.31,0,0,1,1.28-.4,1.34,1.34,0,0,1,.8.34,1.51,1.51,0,0,1,.41.7,2.4,2.4,0,0,1,.13.64.64.64,0,0,1-.07.32.54.54,0,0,1-.19.24l-1.29.74a.15.15,0,0,1-.17,0,.61.61,0,0,1-.12-.15.44.44,0,0,0-.28-.24.74.74,0,0,0-.5.15,1.55,1.55,0,0,0-.62.69A2.58,2.58,0,0,0,315.35,68.11Z" fill="#6366F1" style="transform-origin:316.232px 68.1277px"/>
<path class="animable" d="M325,66.63a.67.67,0,0,1-.08.33.49.49,0,0,1-.18.23l-1.24.72c-.08,0-.14,0-.19,0a.33.33,0,0,1-.08-.24V63.82a1.69,1.69,0,0,0-.2-.93c-.14-.18-.36-.18-.65,0a1.44,1.44,0,0,0-.65.76,3.24,3.24,0,0,0-.2,1.16v3.83a.81.81,0,0,1-.08.34.45.45,0,0,1-.19.23l-1.24.71a.13.13,0,0,1-.18,0,.29.29,0,0,1-.08-.24V59.72a.67.67,0,0,1,.08-.33.49.49,0,0,1,.18-.23l1.24-.72a.15.15,0,0,1,.19,0,.33.33,0,0,1,.08.24v3.23A4.2,4.2,0,0,1,322,61a2.71,2.71,0,0,1,.82-.77,1.91,1.91,0,0,1,.86-.29.85.85,0,0,1,.68.24,1.75,1.75,0,0,1,.43.82,5.28,5.28,0,0,1,.16,1.45Z" fill="#6366F1" style="transform-origin:322.379px 64.1811px"/>
<polygon class="animable" points="246.07 130.3 346.05 72.57 346.05 81.45 246.07 139.18" fill="#e0e0e0" style="transform-origin:296.06px 105.875px"/>
<path class="animable" d="M249.47,149.38a.09.09,0,0,1,.11,0,.17.17,0,0,1,0,.15v.67a.41.41,0,0,1,0,.21.37.37,0,0,1-.11.15l-2.7,1.55q-.08,0-.12,0a.25.25,0,0,1-.05-.16v-6.11a.54.54,0,0,1,.05-.21.24.24,0,0,1,.12-.14l2.65-1.53a.07.07,0,0,1,.11,0,.17.17,0,0,1,.05.15v.67a.41.41,0,0,1-.05.21.27.27,0,0,1-.11.14l-2,1.15v1.5l1.85-1.07a.1.1,0,0,1,.12,0,.21.21,0,0,1,0,.15v.68a.49.49,0,0,1,0,.2.31.31,0,0,1-.12.15L247.43,149v1.57Z" fill="#455a64" style="transform-origin:248.099px 148.022px"/>
<path class="animable" d="M251.14,145.15a2.73,2.73,0,0,1,.36-.63,1.59,1.59,0,0,1,.43-.4.87.87,0,0,1,.64-.14.64.64,0,0,1,.38.36,3.44,3.44,0,0,1,.45-.85,3,3,0,0,1,.27-.32A1.57,1.57,0,0,1,254,143a.91.91,0,0,1,.58-.16.55.55,0,0,1,.38.27,1.41,1.41,0,0,1,.2.58,5.17,5.17,0,0,1,.06.82V147a.37.37,0,0,1,0,.2.37.37,0,0,1-.11.15l-.47.27a.1.1,0,0,1-.12,0,.21.21,0,0,1,0-.15V145a1.28,1.28,0,0,0-.16-.81q-.15-.16-.45,0a1.22,1.22,0,0,0-.42.49,2.33,2.33,0,0,0-.18,1v2.55a.54.54,0,0,1,0,.21.34.34,0,0,1-.12.14l-.47.27a.08.08,0,0,1-.11,0,.17.17,0,0,1,0-.15v-2.5a1.35,1.35,0,0,0-.16-.81c-.11-.1-.26-.1-.45,0a1.17,1.17,0,0,0-.43.51,2.24,2.24,0,0,0-.18,1v2.5a.54.54,0,0,1,0,.21.31.31,0,0,1-.12.15l-.46.27a.1.1,0,0,1-.12,0,.21.21,0,0,1,0-.15v-4.42a.49.49,0,0,1,0-.2.31.31,0,0,1,.12-.15l.46-.27a.1.1,0,0,1,.12,0,.21.21,0,0,1,0,.15Z" fill="#455a64" style="transform-origin:252.955px 146.444px"/>
<path class="animable" d="M256,143.09a2.77,2.77,0,0,1,.11-.49,3.25,3.25,0,0,1,.26-.58,2.57,2.57,0,0,1,.4-.55,2,2,0,0,1,.55-.45,1.31,1.31,0,0,1,.56-.2.62.62,0,0,1,.44.13.89.89,0,0,1,.28.46,2.94,2.94,0,0,1,.09.8V145a.41.41,0,0,1-.05.21.33.33,0,0,1-.11.14l-.47.27a.09.09,0,0,1-.12,0,.21.21,0,0,1-.05-.15v-.31a2.4,2.4,0,0,1-.37.68,1.94,1.94,0,0,1-.62.55,1.12,1.12,0,0,1-.47.17.51.51,0,0,1-.35-.11.77.77,0,0,1-.22-.34,1.77,1.77,0,0,1-.08-.55,2.49,2.49,0,0,1,.31-1.2,3.47,3.47,0,0,1,.8-1l1-.85c0-.25-.05-.41-.16-.45a.47.47,0,0,0-.41.08.61.61,0,0,0-.24.2,1.48,1.48,0,0,0-.17.28l-.1.16a.41.41,0,0,1-.1.09l-.57.33a.11.11,0,0,1-.11,0S256,143.16,256,143.09Zm1,2.07a1.52,1.52,0,0,0,.37-.3,1.76,1.76,0,0,0,.27-.4,1.82,1.82,0,0,0,.17-.44,1.51,1.51,0,0,0,.05-.42v-.09l-.83.71a1.42,1.42,0,0,0-.36.4.78.78,0,0,0-.12.41c0,.13.05.21.14.22A.53.53,0,0,0,257,145.16Z" fill="#455a64" style="transform-origin:257.235px 143.689px"/>
<path class="animable" d="M260.17,137.67a.07.07,0,0,1,.11,0,.21.21,0,0,1,.05.15v.74a.49.49,0,0,1-.05.2.37.37,0,0,1-.11.15l-.53.3c-.05,0-.09,0-.12,0a.21.21,0,0,1,0-.15v-.74a.49.49,0,0,1,0-.2.31.31,0,0,1,.12-.15Zm.13,6.38a.54.54,0,0,1-.05.21.31.31,0,0,1-.12.15l-.46.27a.1.1,0,0,1-.12,0,.21.21,0,0,1-.05-.15V140.1a.53.53,0,0,1,.05-.2.31.31,0,0,1,.12-.15l.46-.27a.1.1,0,0,1,.12,0,.21.21,0,0,1,.05.15Z" fill="#455a64" style="transform-origin:259.915px 141.172px"/>
<path class="animable" d="M262,143.1a.54.54,0,0,1-.05.21.31.31,0,0,1-.12.15l-.46.26q-.07,0-.12,0a.25.25,0,0,1-.05-.16v-6.2a.54.54,0,0,1,.05-.21.31.31,0,0,1,.12-.15l.46-.27a.1.1,0,0,1,.12,0,.21.21,0,0,1,.05.15Z" fill="#455a64" style="transform-origin:261.6px 140.215px"/>
<path class="animable" d="M264.2,138.35a2.77,2.77,0,0,1,.11-.49,2.88,2.88,0,0,1,.26-.57,2.39,2.39,0,0,1,.4-.56,2,2,0,0,1,.55-.45,1.41,1.41,0,0,1,.56-.2.58.58,0,0,1,.43.13.78.78,0,0,1,.28.46,2.56,2.56,0,0,1,.1.8v2.78a.41.41,0,0,1-.05.21.33.33,0,0,1-.11.14l-.47.27a.09.09,0,0,1-.12,0,.21.21,0,0,1-.05-.15v-.31a2.67,2.67,0,0,1-.37.68,1.94,1.94,0,0,1-.62.55,1.12,1.12,0,0,1-.47.17.51.51,0,0,1-.35-.11.7.7,0,0,1-.22-.34,1.73,1.73,0,0,1-.08-.55,2.43,2.43,0,0,1,.31-1.19,3.37,3.37,0,0,1,.8-1l1-.85c0-.25,0-.4-.16-.45a.47.47,0,0,0-.41.08.71.71,0,0,0-.24.2,1.48,1.48,0,0,0-.17.28l-.1.16a.41.41,0,0,1-.1.09l-.58.33a.09.09,0,0,1-.1,0S264.19,138.42,264.2,138.35Zm1,2.07a1.74,1.74,0,0,0,.37-.3,1.76,1.76,0,0,0,.27-.4,1.82,1.82,0,0,0,.17-.44,2,2,0,0,0,0-.42v-.09l-.83.71a1.67,1.67,0,0,0-.37.4.87.87,0,0,0-.11.41c0,.14.05.21.14.22A.53.53,0,0,0,265.23,140.42Z" fill="#455a64" style="transform-origin:265.436px 138.944px"/>
<path class="animable" d="M268.94,134.31a1,1,0,0,1,.34-.14.64.64,0,0,1,.27,0,.54.54,0,0,1,.19.08.47.47,0,0,1,.13.11v-2a.54.54,0,0,1,.05-.21A.33.33,0,0,1,270,132l.47-.27a.09.09,0,0,1,.12,0,.21.21,0,0,1,.05.15v6.21a.54.54,0,0,1-.05.21.28.28,0,0,1-.12.14l-.47.27a.08.08,0,0,1-.11,0,.21.21,0,0,1-.05-.15v-.22c0,.08-.08.16-.13.26a2.49,2.49,0,0,1-.19.3,2.44,2.44,0,0,1-.27.29,1.8,1.8,0,0,1-.34.26.82.82,0,0,1-.56.13.7.7,0,0,1-.42-.24,1.5,1.5,0,0,1-.28-.55,3.06,3.06,0,0,1-.11-.78,3.11,3.11,0,0,1,0-.32c0-.13,0-.24,0-.34a4.8,4.8,0,0,1,.11-.9,4.66,4.66,0,0,1,.28-.87,4.07,4.07,0,0,1,.42-.74A1.75,1.75,0,0,1,268.94,134.31Zm-.57,2.62a4.68,4.68,0,0,0,0,.53c0,.39.1.64.24.74a.45.45,0,0,0,.51,0,1.36,1.36,0,0,0,.51-.57,2.2,2.2,0,0,0,.24-.93c0-.09,0-.22,0-.36a3.33,3.33,0,0,0,0-.35.89.89,0,0,0-.24-.65.45.45,0,0,0-.51,0,1.43,1.43,0,0,0-.51.57A2.41,2.41,0,0,0,268.37,136.93Z" fill="#455a64" style="transform-origin:269.088px 135.647px"/>
<path class="animable" d="M272.75,132.11a.94.94,0,0,1,.34-.14.58.58,0,0,1,.26,0,.43.43,0,0,1,.2.07l.13.11v-2a.52.52,0,0,1,0-.21.58.58,0,0,1,.12-.14l.47-.27a.09.09,0,0,1,.11,0,.17.17,0,0,1,.05.15v6.21a.41.41,0,0,1-.05.21.27.27,0,0,1-.11.14l-.47.27a.09.09,0,0,1-.12,0,.25.25,0,0,1,0-.16v-.21l-.13.25a2.61,2.61,0,0,1-.2.3,2.32,2.32,0,0,1-.26.3,2.13,2.13,0,0,1-.34.25.9.9,0,0,1-.56.14.66.66,0,0,1-.42-.25,1.5,1.5,0,0,1-.28-.55,2.65,2.65,0,0,1-.11-.77c0-.1,0-.2,0-.33s0-.24,0-.34a4.1,4.1,0,0,1,.11-.9,4.66,4.66,0,0,1,.28-.87,3.15,3.15,0,0,1,.42-.74A1.87,1.87,0,0,1,272.75,132.11Zm-.58,2.62a4.68,4.68,0,0,0,0,.53c0,.39.11.64.25.74a.45.45,0,0,0,.51,0,1.43,1.43,0,0,0,.51-.57,2.35,2.35,0,0,0,.24-.92c0-.1,0-.22,0-.37s0-.26,0-.35a.89.89,0,0,0-.24-.64.42.42,0,0,0-.51,0,1.34,1.34,0,0,0-.51.56A2.55,2.55,0,0,0,272.17,134.73Z" fill="#455a64" style="transform-origin:272.906px 133.447px"/>
<path class="animable" d="M276.82,131a1.27,1.27,0,0,0-.54.56,2.28,2.28,0,0,0-.16.91v2.46a.41.41,0,0,1-.05.21.27.27,0,0,1-.11.14l-.47.27a.09.09,0,0,1-.12,0,.21.21,0,0,1-.05-.15V131a.54.54,0,0,1,.05-.21.24.24,0,0,1,.12-.14l.47-.27a.08.08,0,0,1,.11,0,.17.17,0,0,1,.05.15v.22a3.07,3.07,0,0,1,.34-.55,1.6,1.6,0,0,1,.48-.4l.28-.16a.09.09,0,0,1,.11,0,.17.17,0,0,1,.05.15v.63a.35.35,0,0,1-.05.2.37.37,0,0,1-.11.15Z" fill="#455a64" style="transform-origin:276.351px 132.597px"/>
<path class="animable" d="M277.68,131.81a5.53,5.53,0,0,1,.11-1.06,4.87,4.87,0,0,1,.3-1,3.47,3.47,0,0,1,.48-.82,2,2,0,0,1,.62-.56,1,1,0,0,1,.62-.17.71.71,0,0,1,.48.25,1.49,1.49,0,0,1,.31.59,3.22,3.22,0,0,1,.1.86v.42a.41.41,0,0,1-.05.21.37.37,0,0,1-.11.15l-2.06,1.18a.85.85,0,0,0,.06.35.38.38,0,0,0,.16.19.34.34,0,0,0,.23,0,.77.77,0,0,0,.26-.1,1.16,1.16,0,0,0,.32-.24,1.31,1.31,0,0,0,.2-.28c.05-.07.08-.13.11-.16a.4.4,0,0,1,.12-.1l.49-.28q.07,0,.12,0a.17.17,0,0,1,.05.15,1.35,1.35,0,0,1-.1.4,3.88,3.88,0,0,1-.26.56,4.58,4.58,0,0,1-.44.6,2.63,2.63,0,0,1-.61.49,1.16,1.16,0,0,1-.62.18.68.68,0,0,1-.48-.26,1.54,1.54,0,0,1-.3-.63A4,4,0,0,1,277.68,131.81Zm1.51-2.29a1.08,1.08,0,0,0-.3.26,1.46,1.46,0,0,0-.22.33,2.6,2.6,0,0,0-.13.36,2.33,2.33,0,0,0-.06.33l1.39-.8a1.26,1.26,0,0,0,0-.27.57.57,0,0,0-.11-.22.27.27,0,0,0-.21-.09A.61.61,0,0,0,279.19,129.52Z" fill="#455a64" style="transform-origin:279.19px 130.909px"/>
<path class="animable" d="M283.11,129.73a.21.21,0,0,0,0-.15.21.21,0,0,0-.15,0,1.35,1.35,0,0,0-.29,0l-.45.11a1,1,0,0,1-.45,0,.52.52,0,0,1-.29-.16.81.81,0,0,1-.15-.35,3.49,3.49,0,0,1,0-.5,2.31,2.31,0,0,1,.09-.61,2.75,2.75,0,0,1,.25-.63,3,3,0,0,1,.39-.57,2,2,0,0,1,.54-.44,1.45,1.45,0,0,1,.53-.21.77.77,0,0,1,.41,0,.57.57,0,0,1,.26.25.93.93,0,0,1,.1.38.33.33,0,0,1-.05.21.31.31,0,0,1-.12.15l-.47.27a.16.16,0,0,1-.14,0l-.1-.06a.3.3,0,0,0-.15,0,.65.65,0,0,0-.27.11,1,1,0,0,0-.33.28.59.59,0,0,0-.14.38.35.35,0,0,0,0,.16.17.17,0,0,0,.13.05l.27,0,.44-.11a.74.74,0,0,1,.77.12,1.2,1.2,0,0,1,.22.82,2.18,2.18,0,0,1-.09.6,2.73,2.73,0,0,1-.27.64,2.7,2.7,0,0,1-.43.59,2.5,2.5,0,0,1-.57.46,1.33,1.33,0,0,1-.58.21.72.72,0,0,1-.42-.06.62.62,0,0,1-.26-.27,1,1,0,0,1-.1-.41.39.39,0,0,1,0-.21.35.35,0,0,1,.12-.14l.48-.28a.14.14,0,0,1,.14,0l.1.09a.21.21,0,0,0,.16.06.75.75,0,0,0,.32-.12l.19-.12.18-.17.14-.19A.54.54,0,0,0,283.11,129.73Z" fill="#455a64" style="transform-origin:282.596px 128.966px"/>
<path class="animable" d="M286.31,127.88a.18.18,0,0,0,0-.14.21.21,0,0,0-.15,0l-.29,0-.45.11a1,1,0,0,1-.45,0,.5.5,0,0,1-.29-.17.76.76,0,0,1-.15-.34,2.53,2.53,0,0,1,0-.5,2.69,2.69,0,0,1,.08-.61,3.07,3.07,0,0,1,.65-1.21,2,2,0,0,1,.53-.44,1.7,1.7,0,0,1,.54-.21.73.73,0,0,1,.4,0,.51.51,0,0,1,.26.24.94.94,0,0,1,.11.39.43.43,0,0,1,0,.21.24.24,0,0,1-.12.14l-.47.28c-.06,0-.11,0-.14,0l-.1-.06a.33.33,0,0,0-.15,0,.59.59,0,0,0-.28.11,1.18,1.18,0,0,0-.32.27.54.54,0,0,0-.14.38.32.32,0,0,0,0,.16.16.16,0,0,0,.13.05l.26,0,.44-.11q.56-.14.78.12a1.22,1.22,0,0,1,.22.82,2.31,2.31,0,0,1-.09.61,2.92,2.92,0,0,1-.27.64,3.41,3.41,0,0,1-.43.59,2.32,2.32,0,0,1-.58.45,1.41,1.41,0,0,1-.57.22.69.69,0,0,1-.42-.07.64.64,0,0,1-.27-.27.91.91,0,0,1-.09-.41.38.38,0,0,1,0-.2.49.49,0,0,1,.12-.15l.48-.27c.06,0,.1,0,.13,0l.11.1a.25.25,0,0,0,.16.05.55.55,0,0,0,.31-.11l.2-.13.18-.17a1.33,1.33,0,0,0,.14-.19A.54.54,0,0,0,286.31,127.88Z" fill="#455a64" style="transform-origin:285.846px 127.115px"/>
<polygon class="animable" points="246.07 156.94 346.05 99.21 346.05 108.09 246.07 165.82" fill="#e0e0e0" style="transform-origin:296.06px 132.515px"/>
<path class="animable" d="M248.62,174.45l1.17-3.8a1.6,1.6,0,0,1,.08-.2.46.46,0,0,1,.18-.21l.42-.24a.11.11,0,0,1,.12,0,.21.21,0,0,1,0,.15v6.12a.52.52,0,0,1,0,.21.43.43,0,0,1-.12.14l-.5.29a.11.11,0,0,1-.12,0,.21.21,0,0,1,0-.15v-3.7l-.79,2.59a1.13,1.13,0,0,1-.09.2.4.4,0,0,1-.14.17l-.32.18c-.06,0-.11,0-.14,0a.41.41,0,0,1-.09-.1l-.8-1.67v3.7a.54.54,0,0,1-.05.21.28.28,0,0,1-.12.14l-.49.29a.1.1,0,0,1-.12,0,.21.21,0,0,1-.05-.15v-6.12a.54.54,0,0,1,.05-.21.28.28,0,0,1,.12-.14l.41-.24c.09-.05.15-.05.19,0l.08.1Z" fill="#455a64" style="transform-origin:248.627px 174.386px"/>
<path class="animable" d="M251.38,173.64a5.51,5.51,0,0,1,.1-1.06,4.87,4.87,0,0,1,.3-1,3.84,3.84,0,0,1,.48-.82,2.19,2.19,0,0,1,.63-.56,1,1,0,0,1,.62-.17.71.71,0,0,1,.48.25,1.42,1.42,0,0,1,.3.59,3.21,3.21,0,0,1,.11.86v.42a.54.54,0,0,1-.05.21.31.31,0,0,1-.12.15l-2,1.18a.85.85,0,0,0,.06.35.42.42,0,0,0,.15.19.35.35,0,0,0,.23,0,.64.64,0,0,0,.27-.1,1.11,1.11,0,0,0,.31-.24,1.37,1.37,0,0,0,.21-.28.85.85,0,0,1,.11-.16.4.4,0,0,1,.12-.1l.49-.28a.09.09,0,0,1,.12,0,.18.18,0,0,1,0,.16,1.29,1.29,0,0,1-.09.39,3.14,3.14,0,0,1-.27.56,3.82,3.82,0,0,1-.44.6,2.39,2.39,0,0,1-.6.49,1.17,1.17,0,0,1-.63.18.7.7,0,0,1-.48-.26,1.54,1.54,0,0,1-.3-.63A4,4,0,0,1,251.38,173.64Zm1.51-2.29a1.13,1.13,0,0,0-.31.26,1.85,1.85,0,0,0-.21.33,1.74,1.74,0,0,0-.13.36,2.33,2.33,0,0,0-.06.33l1.39-.8a2.56,2.56,0,0,0,0-.27.46.46,0,0,0-.11-.22.25.25,0,0,0-.2-.09A.58.58,0,0,0,252.89,171.35Z" fill="#455a64" style="transform-origin:252.89px 172.739px"/>
<path class="animable" d="M256.81,171.56a.27.27,0,0,0,0-.15.23.23,0,0,0-.16,0,1.28,1.28,0,0,0-.28.05l-.46.11a1,1,0,0,1-.44,0,.49.49,0,0,1-.29-.16.81.81,0,0,1-.15-.35,2.47,2.47,0,0,1,0-.5,2.28,2.28,0,0,1,.08-.61,3.3,3.3,0,0,1,.25-.63,3.09,3.09,0,0,1,.4-.57,1.86,1.86,0,0,1,.53-.44,1.42,1.42,0,0,1,.54-.21.73.73,0,0,1,.4,0,.53.53,0,0,1,.26.25.94.94,0,0,1,.11.39.53.53,0,0,1,0,.2.38.38,0,0,1-.12.15l-.47.27a.17.17,0,0,1-.14,0l-.1-.06a.24.24,0,0,0-.15,0,.63.63,0,0,0-.28.1,1.06,1.06,0,0,0-.32.28.55.55,0,0,0-.15.38.34.34,0,0,0,0,.16.14.14,0,0,0,.13.05l.26,0,.44-.11c.37-.09.62,0,.77.12a1.2,1.2,0,0,1,.23.82,2.18,2.18,0,0,1-.09.6,4,4,0,0,1-.27.64,3.07,3.07,0,0,1-.43.59,2.35,2.35,0,0,1-.58.46,1.34,1.34,0,0,1-.57.21.7.7,0,0,1-.42-.06.59.59,0,0,1-.27-.27,1.12,1.12,0,0,1-.1-.41.54.54,0,0,1,.05-.21.24.24,0,0,1,.12-.14l.47-.28c.07,0,.11,0,.14,0l.11.09a.21.21,0,0,0,.16.06.61.61,0,0,0,.31-.12,1,1,0,0,0,.19-.12,1,1,0,0,0,.18-.17.77.77,0,0,0,.14-.19A.42.42,0,0,0,256.81,171.56Z" fill="#455a64" style="transform-origin:256.337px 170.841px"/>
<path class="animable" d="M260,169.71a.18.18,0,0,0-.05-.14.21.21,0,0,0-.15,0,2.11,2.11,0,0,0-.28.05l-.46.11a1,1,0,0,1-.45,0,.48.48,0,0,1-.28-.17.59.59,0,0,1-.15-.34,2.49,2.49,0,0,1-.05-.5,2.25,2.25,0,0,1,.09-.61,2.85,2.85,0,0,1,.25-.63,3.27,3.27,0,0,1,.39-.58,2.27,2.27,0,0,1,.54-.44,1.86,1.86,0,0,1,.54-.21.74.74,0,0,1,.4,0,.55.55,0,0,1,.26.24.93.93,0,0,1,.1.39.39.39,0,0,1,0,.21.43.43,0,0,1-.12.14l-.48.27c-.06,0-.1.05-.13,0a.3.3,0,0,1-.11-.06.26.26,0,0,0-.14,0,.68.68,0,0,0-.28.11,1.4,1.4,0,0,0-.33.27.6.6,0,0,0-.14.39.22.22,0,0,0,0,.15s.06,0,.12,0l.27,0,.44-.11a.74.74,0,0,1,.77.12,1.22,1.22,0,0,1,.23.82,2.35,2.35,0,0,1-.1.61,3.44,3.44,0,0,1-.26.64,4.66,4.66,0,0,1-.43.59,2.74,2.74,0,0,1-.58.45,1.51,1.51,0,0,1-.58.22.72.72,0,0,1-.42-.07.62.62,0,0,1-.26-.27,1.08,1.08,0,0,1-.1-.41.39.39,0,0,1,.05-.2.31.31,0,0,1,.12-.15l.47-.27c.06,0,.11,0,.14,0l.1.09a.29.29,0,0,0,.17.05.57.57,0,0,0,.31-.11l.19-.13a1,1,0,0,0,.18-.17.85.85,0,0,0,.14-.19A.42.42,0,0,0,260,169.71Z" fill="#455a64" style="transform-origin:259.437px 168.965px"/>
<path class="animable" d="M261.46,166.57a3.13,3.13,0,0,1,.12-.49,2.83,2.83,0,0,1,.25-.57,3,3,0,0,1,.4-.56,2.13,2.13,0,0,1,.55-.44,1.23,1.23,0,0,1,.56-.2.6.6,0,0,1,.44.12.93.93,0,0,1,.28.46,3,3,0,0,1,.1.8v2.78a.54.54,0,0,1-.05.21c0,.07-.07.12-.12.14l-.47.27a.08.08,0,0,1-.11,0,.21.21,0,0,1-.05-.16v-.31a2.72,2.72,0,0,1-.38.68,1.79,1.79,0,0,1-.61.55,1.07,1.07,0,0,1-.48.17.52.52,0,0,1-.35-.1.92.92,0,0,1-.22-.35,1.73,1.73,0,0,1-.07-.54,2.43,2.43,0,0,1,.3-1.2,3.51,3.51,0,0,1,.8-1l1-.84c0-.26-.06-.41-.17-.46a.51.51,0,0,0-.41.08.83.83,0,0,0-.24.21,1.59,1.59,0,0,0-.17.27.55.55,0,0,1-.1.16.28.28,0,0,1-.1.09l-.57.33a.08.08,0,0,1-.11,0S261.45,166.64,261.46,166.57Zm1,2.08a1.36,1.36,0,0,0,.37-.31,1.56,1.56,0,0,0,.27-.4,1.92,1.92,0,0,0,.17-.43,1.64,1.64,0,0,0,.06-.42V167l-.84.71a1.45,1.45,0,0,0-.36.41.72.72,0,0,0-.11.41c0,.13,0,.2.13.21A.44.44,0,0,0,262.49,168.65Z" fill="#455a64" style="transform-origin:262.705px 167.164px"/>
<path class="animable" d="M266.37,168.4a1,1,0,0,0,.26-.22,1.43,1.43,0,0,0,.25-.33,2.53,2.53,0,0,0,.18-.44,1.81,1.81,0,0,0,.07-.52v-.35a2.08,2.08,0,0,1-.13.26c-.05.09-.12.19-.19.29a3.65,3.65,0,0,1-.27.3,1.76,1.76,0,0,1-.34.25.87.87,0,0,1-.55.14.71.71,0,0,1-.43-.25A1.49,1.49,0,0,1,265,167a3,3,0,0,1-.12-.77v-.67a4.84,4.84,0,0,1,.12-.9,4.65,4.65,0,0,1,.27-.87,3.58,3.58,0,0,1,.43-.74,2,2,0,0,1,.55-.5,1.29,1.29,0,0,1,.34-.14.63.63,0,0,1,.27,0,.4.4,0,0,1,.19.07.5.5,0,0,1,.13.11v-.22a.54.54,0,0,1,.05-.21.28.28,0,0,1,.12-.14l.46-.27a.09.09,0,0,1,.12,0,.21.21,0,0,1,.05.15v4.44a4.44,4.44,0,0,1-.41,2,2.89,2.89,0,0,1-1.15,1.24,1.52,1.52,0,0,1-.58.21.9.9,0,0,1-.47-.07.77.77,0,0,1-.31-.31,1,1,0,0,1-.13-.47.41.41,0,0,1,.05-.21.31.31,0,0,1,.12-.15l.41-.24a.12.12,0,0,1,.15,0l.11.1a.28.28,0,0,0,.22.14A.74.74,0,0,0,266.37,168.4Zm-.74-3.25a4.68,4.68,0,0,0,0,.53c0,.4.11.64.25.74a.45.45,0,0,0,.51,0,1.34,1.34,0,0,0,.5-.57,2.19,2.19,0,0,0,.24-.92c0-.1,0-.22,0-.37s0-.26,0-.35a.85.85,0,0,0-.24-.64.4.4,0,0,0-.5,0,1.34,1.34,0,0,0-.51.56A2.55,2.55,0,0,0,265.63,165.15Z" fill="#455a64" style="transform-origin:266.431px 165.762px"/>
<path class="animable" d="M268.62,163.69a5.44,5.44,0,0,1,.1-1.06,4.57,4.57,0,0,1,.31-1,4.08,4.08,0,0,1,.47-.82,2.35,2.35,0,0,1,.63-.56,1,1,0,0,1,.62-.16.74.74,0,0,1,.48.24,1.42,1.42,0,0,1,.3.59,3.26,3.26,0,0,1,.11.86v.43a.54.54,0,0,1-.05.21.24.24,0,0,1-.12.14l-2.05,1.19a.88.88,0,0,0,.06.35.42.42,0,0,0,.15.19.45.45,0,0,0,.23,0,1,1,0,0,0,.27-.1,1.69,1.69,0,0,0,.32-.25,2.34,2.34,0,0,0,.2-.27,1,1,0,0,1,.11-.17l.12-.09.49-.29a.11.11,0,0,1,.12,0,.17.17,0,0,1,0,.15,1.4,1.4,0,0,1-.09.4,3.14,3.14,0,0,1-.27.56,3.35,3.35,0,0,1-.44.59,2.19,2.19,0,0,1-.6.49,1,1,0,0,1-.63.18.67.67,0,0,1-.47-.25,1.43,1.43,0,0,1-.31-.63A4,4,0,0,1,268.62,163.69Zm1.51-2.29a1.26,1.26,0,0,0-.31.25,2.39,2.39,0,0,0-.21.34,1.55,1.55,0,0,0-.13.36,2.33,2.33,0,0,0-.06.33l1.39-.8a1.28,1.28,0,0,0-.05-.27.49.49,0,0,0-.11-.23.34.34,0,0,0-.2-.09A.61.61,0,0,0,270.13,161.4Z" fill="#455a64" style="transform-origin:270.127px 162.789px"/>
<polygon class="animable" points="246.07 183.58 346.05 125.86 346.05 156.94 246.07 214.66" fill="#e0e0e0" style="transform-origin:296.06px 170.26px"/>
</g>
</g>
<g class="animable" style="transform-origin:165.293px 235.292px">
<g class="animable" style="transform-origin:157.01px 235.292px">
<path class="animable" d="m211.45 68.42-115.74 66.73a5.77 5.77 0 0 0-2.6 4.51v257.09a5.72 5.72 0 0 0 2.61 4.5l1.63 0.93a5.76 5.76 0 0 0 5.21 0l115.74-66.85a5.76 5.76 0 0 0 2.61-4.51v-257a5.72 5.72 0 0 0-2.62-4.5l-1.62-0.93a5.78 5.78 0 0 0-5.22 0.03z" fill="#e0e0e0" style="transform-origin:157.01px 235.292px"/>
<path class="animable" d="m220.91 331c0 2.29-1.61 3.75-3.61 4.89l-113.74 65.69c-2 1.15-3.6 0.22-3.6-2.08v-254.79a7.16 7.16 0 0 1 3.58-6.21l113.76-65.71a2.41 2.41 0 0 1 3.61 2.08z" fill="#fafafa" style="transform-origin:160.435px 237.271px"/>
<path class="animable" d="M218.5,73.47h0a1.4,1.4,0,0,1,1.4,1.4V331c0,1.55-1,2.79-3.1,4L103.06,400.71a2.28,2.28,0,0,1-1.11.36c-.86,0-1-1-1-1.57V144.71a6.19,6.19,0,0,1,3.08-5.34L217.8,73.66a1.37,1.37,0,0,1,.7-.19m0-1a2.43,2.43,0,0,0-1.2.32L103.54,138.5a7.16,7.16,0,0,0-3.58,6.21V399.5c0,1.63.81,2.57,2,2.57a3.29,3.29,0,0,0,1.61-.49L217.3,335.9c2-1.14,3.61-2.6,3.61-4.89V74.87a2.41,2.41,0,0,0-2.41-2.4Z" fill="#e0e0e0" style="transform-origin:160.435px 237.27px"/>
<path class="animable" d="m220.91 73.84v1a2.41 2.41 0 0 0-3.61-2.08l-113.76 65.75a7.06 7.06 0 0 0-2.62 2.61v0.08l-7-4.06a5.36 5.36 0 0 1 1.88-2l115.65-66.72a5.81 5.81 0 0 1 5.22 0l1.62 0.93a5.73 5.73 0 0 1 2.62 4.49z" fill="#f0f0f0" style="transform-origin:157.415px 104.5px"/>
<path class="animable" d="M122.17,142.14a.32.32,0,0,1,0-.17v-.84l-1.31.76c-.08,0-.11,0-.11-.12v-.3a.86.86,0,0,1,0-.17.9.9,0,0,1,0-.16l1.39-3.81a1.13,1.13,0,0,1,.07-.15.24.24,0,0,1,.09-.08l.18-.11q.09,0,.12,0s0,.09,0,.19v2.93l.29-.17c.06,0,.09,0,.12,0a.41.41,0,0,1,0,.19v.2a.58.58,0,0,1,0,.21.28.28,0,0,1-.12.12l-.29.17v.84a.41.41,0,0,1,0,.21.22.22,0,0,1-.12.13l-.22.13C122.24,142.16,122.2,142.17,122.17,142.14Zm.06-1.78v-2.09l-1,2.64Z" fill="#455a64" style="transform-origin:121.883px 139.574px"/>
<path class="animable" d="M123.73,140.73a2.81,2.81,0,0,1-.38-1.71,5.41,5.41,0,0,1,.39-2.16,2.6,2.6,0,0,1,1.08-1.31,1.46,1.46,0,0,1,.53-.2.56.56,0,0,1,.41.06.08.08,0,0,1,0,.07.38.38,0,0,1,0,.1l-.12.44a.31.31,0,0,1,0,.09h-.06a.74.74,0,0,0-.67.1,1.9,1.9,0,0,0-.74.91,4.06,4.06,0,0,0-.27,1.59,2.27,2.27,0,0,0,.26,1.3c.18.21.42.23.72.05a1.72,1.72,0,0,0,.32-.23,1.66,1.66,0,0,0,.26-.28v-1.37l-.55.32s-.09,0-.11,0a.26.26,0,0,1,0-.18v-.19a.43.43,0,0,1,0-.22.25.25,0,0,1,.11-.12l.88-.5c.06,0,.1,0,.13,0a.47.47,0,0,1,0,.22v1.94a.72.72,0,0,1,0,.17.24.24,0,0,1,0,.13,2.71,2.71,0,0,1-1,1C124.35,141.05,124,141,123.73,140.73Z" fill="#455a64" style="transform-origin:124.635px 138.145px"/>
<path class="animable" d="M134.8,134a2,2,0,0,1-.76,1.61c-.42.25-.76-.08-.76-.73a2,2,0,0,1,.76-1.61C134.46,133.05,134.8,133.38,134.8,134Z" fill="#455a64" style="transform-origin:134.04px 134.448px"/>
<path class="animable" d="M134,131.38a4.57,4.57,0,0,0-1.77,2.66c-.07.24,0,.46.08.53h0c.14.09.36-.09.44-.39A3.24,3.24,0,0,1,134,132.3a.81.81,0,0,1,1.25.44c.08.2.3.14.44-.12h0a.77.77,0,0,0,.08-.63A1.14,1.14,0,0,0,134,131.38Z" fill="#455a64" style="transform-origin:134.003px 132.877px"/>
<path class="animable" d="M134,129.5a7.12,7.12,0,0,0-2.72,3.87c-.09.25-.06.51.06.59h0c.14.09.35-.09.44-.37a5.82,5.82,0,0,1,2.22-3.17,1.47,1.47,0,0,1,2.22.6c.1.18.3.12.44-.13h0a.75.75,0,0,0,.06-.66A1.81,1.81,0,0,0,134,129.5Z" fill="#455a64" style="transform-origin:133.999px 131.568px"/>
<path class="animable" d="M159.85,117.16a.08.08,0,0,1,.1,0,.21.21,0,0,1,0,.12v.76a.58.58,0,0,1,0,.18.27.27,0,0,1-.1.11l-.47.27a.07.07,0,0,1-.09,0,.17.17,0,0,1,0-.13v-.76a.35.35,0,0,1,0-.17.29.29,0,0,1,.09-.12Zm0,2.72a.08.08,0,0,1,.1,0,.17.17,0,0,1,0,.12v.76a.47.47,0,0,1,0,.17.25.25,0,0,1-.1.12l-.47.27a.06.06,0,0,1-.09,0s0-.06,0-.12v-.76a.35.35,0,0,1,0-.17.24.24,0,0,1,.09-.12Z" fill="#455a64" style="transform-origin:159.619px 119.241px"/>
<path class="animable" d="M162.54,119.51a.08.08,0,0,1-.09,0,.17.17,0,0,1,0-.13v-.94l-1.56.91a.08.08,0,0,1-.1,0,.16.16,0,0,1,0-.12v-.55a.66.66,0,0,1,0-.21c0-.07,0-.14.08-.22l1.54-3.86a.63.63,0,0,1,.21-.31l.38-.22a.08.08,0,0,1,.1,0,.17.17,0,0,1,0,.13v3.1l.43-.25a.08.08,0,0,1,.1,0,.15.15,0,0,1,0,.12v.55a.33.33,0,0,1,0,.17.25.25,0,0,1-.1.12l-.43.25V119a.33.33,0,0,1,0,.17.25.25,0,0,1-.1.12Zm-.13-2.05V115.8l-.86,2.16Z" fill="#455a64" style="transform-origin:162.21px 116.683px"/>
<path class="animable" d="M157.37,122.47a.08.08,0,0,1-.1,0,.22.22,0,0,1,0-.13v-.94l-1.56.91a.08.08,0,0,1-.1,0,.21.21,0,0,1,0-.12v-.56a.45.45,0,0,1,0-.2,1.87,1.87,0,0,1,.07-.22l1.55-3.86a.57.57,0,0,1,.2-.31l.39-.23a.07.07,0,0,1,.09,0,.17.17,0,0,1,0,.13V120l.44-.25a.06.06,0,0,1,.09,0s0,.06,0,.12v.55a.33.33,0,0,1,0,.17.24.24,0,0,1-.09.12l-.44.25V122a.35.35,0,0,1,0,.17.24.24,0,0,1-.09.12Zm-.14-2v-1.66l-.86,2.16Z" fill="#455a64" style="transform-origin:157.025px 119.641px"/>
<path class="animable" d="M164.57,113.11a.35.35,0,0,1,0-.17.25.25,0,0,1,.1-.12l1.89-1.09a.09.09,0,0,1,.1,0,.22.22,0,0,1,0,.13v.55a.53.53,0,0,1,0,.17.25.25,0,0,1-.1.12l-1.41.82-.06,1a1.23,1.23,0,0,1,.27-.25l.22-.15a1.2,1.2,0,0,1,.52-.18.6.6,0,0,1,.42.1.87.87,0,0,1,.28.4,2.06,2.06,0,0,1,.1.71,3.62,3.62,0,0,1-.1.91,3.17,3.17,0,0,1-.29.75,2.21,2.21,0,0,1-.42.58,2.72,2.72,0,0,1-.51.4,1.64,1.64,0,0,1-.6.22.62.62,0,0,1-.41-.1.77.77,0,0,1-.25-.35,1.61,1.61,0,0,1-.09-.52.25.25,0,0,1,0-.17.24.24,0,0,1,.09-.12l.41-.24s.07,0,.09,0a.15.15,0,0,1,.06.11.55.55,0,0,0,.09.23.29.29,0,0,0,.16.09.33.33,0,0,0,.19,0,1.38,1.38,0,0,0,.22-.1,1.15,1.15,0,0,0,.46-.51,1.61,1.61,0,0,0,.18-.76.54.54,0,0,0-.18-.48.41.41,0,0,0-.46,0,1.25,1.25,0,0,0-.24.18.67.67,0,0,0-.14.16l-.1.14a.38.38,0,0,1-.12.1l-.46.27a.08.08,0,0,1-.1,0s0-.06,0-.12Z" fill="#455a64" style="transform-origin:165.558px 114.864px"/>
<polygon class="animable" points="107.67 151.14 107.67 149.52 109.07 148.71 109.07 150.33" fill="#455a64" style="transform-origin:108.37px 149.925px"/>
<polygon class="animable" points="109.77 149.93 109.77 146.69 111.17 145.88 111.17 149.12" fill="#455a64" style="transform-origin:110.47px 147.905px"/>
<polygon class="animable" points="111.87 148.71 111.87 143.86 113.27 143.05 113.27 147.9" fill="#455a64" style="transform-origin:112.57px 145.88px"/>
<polygon class="animable" points="113.97 147.5 113.97 141.03 115.38 140.22 115.38 146.69" fill="#455a64" style="transform-origin:114.675px 143.86px"/>
<path class="animable" d="M212.4,85.42a.37.37,0,0,0-.52-.17l-5.24,3a2,2,0,0,0-.6,1.59v2.94a1.67,1.67,0,0,0,.23.94.42.42,0,0,0,.21.19.31.31,0,0,0,.31,0l5.23-3a2,2,0,0,0,.6-1.59V86.36A1.79,1.79,0,0,0,212.4,85.42Zm-6,7.93a.83.83,0,0,1-.09-.43V90a1.57,1.57,0,0,1,.47-1.21l5.23-3a.21.21,0,0,1,.17,0,.17.17,0,0,1,.06.06.79.79,0,0,1,.09.43v2.94a1.57,1.57,0,0,1-.46,1.21l-5.24,3A.15.15,0,0,1,206.41,93.35Z" fill="#455a64" style="transform-origin:209.33px 89.5767px"/>
<path class="animable" d="M207.78,88.71v3.48l-.82.47a.11.11,0,0,1-.16-.09V90a1.21,1.21,0,0,1,.34-.9Z" fill="#455a64" style="transform-origin:207.289px 90.6911px"/>
<polygon class="animable" points="208.16 88.5 209.14 87.93 209.14 91.41 208.16 91.97" fill="#455a64" style="transform-origin:208.65px 89.95px"/>
<polygon class="animable" points="209.52 87.72 210.51 87.14 210.51 90.63 209.52 91.2" fill="#455a64" style="transform-origin:210.015px 89.17px"/>
<path class="animable" d="M211.87,86.59V89.1a1.3,1.3,0,0,1-.65,1.12l-.33.19V86.93l.78-.45A.13.13,0,0,1,211.87,86.59Z" fill="#455a64" style="transform-origin:211.38px 88.4348px"/>
<path class="animable" d="M212.82,86.27c.14-.09.26.33.26.93v.55a2.24,2.24,0,0,1-.26,1.27l-.27.18V86.42Z" fill="#455a64" style="transform-origin:212.82px 87.7289px"/>
<polygon class="animable" points="198.09 95.16 203.18 90.64 201.61 97.26 200.87 94.51" fill="#455a64" style="transform-origin:200.635px 93.95px"/>
<path class="animable" d="M110.1,158,192,110.74c1.36-.78,2.46-.14,2.46,1.42v7.65a5.45,5.45,0,0,1-2.46,4.26L110.1,171.35c-1.36.78-2.46.15-2.46-1.42v-7.64A5.42,5.42,0,0,1,110.1,158Z" fill="#6366F1" style="transform-origin:151.05px 141.046px"/>
<path class="animable" d="M200.64,118.1a.94.94,0,0,1-.82-.47.93.93,0,0,1,.34-1.29L211,110a1,1,0,0,1,1,1.64L201.11,118A.9.9,0,0,1,200.64,118.1Z" fill="#e0e0e0" style="transform-origin:205.974px 114.033px"/>
<path class="animable" d="M200.64,113.43a.94.94,0,0,1-.48-1.76L211,105.35a.95.95,0,1,1,1,1.63l-10.83,6.32A.9.9,0,0,1,200.64,113.43Z" fill="#e0e0e0" style="transform-origin:206.069px 109.32px"/>
<path class="animable" d="M200.64,108.77a1,1,0,0,1-.48-1.77L211,100.68a1,1,0,0,1,1.3.34.94.94,0,0,1-.34,1.29l-10.83,6.33A1,1,0,0,1,200.64,108.77Z" fill="#e0e0e0" style="transform-origin:206.107px 104.668px"/>
</g>
<g class="animable" style="transform-origin:168.718px 292.966px">
<g class="animable" style="transform-origin:134.07px 373.411px">
<path class="animable" d="M100,344.75V399.6c0,2.21,1.56,3.1,3.46,2l34.31-19.81,3.33-1.92,26.49-15.3c.15-5,.28-9.22.37-12.33.12-3.59.18-5.68.18-5.68Z" fill="#455a64" style="transform-origin:134.07px 373.411px"/>
</g>
<g class="animable" style="transform-origin:168.718px 273.471px">
<path class="animable" d="M206.5,271.07a27.12,27.12,0,0,0,.58-4.22c.56-6.82,4.09-12.87,7.88-18.41.64-.94,1.3-1.88,2-2.82a13.92,13.92,0,0,0,.92-1.39c.24-.47.46-.85,1.12-.72a1.88,1.88,0,0,1,1.1.82,5.56,5.56,0,0,1,.67,4.48,26.65,26.65,0,0,1-1.63,4.36c-.46,1.11.86.77,1.46.52,2.94-1.23,5.89-5.34,7.74-7.87,1.21-1.66,2.11-3.53,3.57-5a6.26,6.26,0,0,1,3.27-1.87c.85-.15,1.68,0,1.77,1.08a4.36,4.36,0,0,1-.52,1.93c-.52,1.28-1,2.44-.4,3.8a10.81,10.81,0,0,1,1,2.57c.17,1.17-.36,2.33-.33,3.51s.63,1.92.76,2.91-.54,2.52-.9,3.5a28.46,28.46,0,0,1-3.52,6.54,54.31,54.31,0,0,1-7.63,8.34,14.92,14.92,0,0,0-4,4.81,31.67,31.67,0,0,0-1.69,6.08c-.54,2.58-1,5.18-1.57,7.76-5.74,28-8.61,29.55-12.25,33.72-2.2,2.52-8.55,4.9-17.18-4C179.14,311.6,160.82,286,160.82,286L157,251.79s3.41.92,7.72,2.15c4,1.15,8.26,5.19,11.12,9.71C181.75,273,197,297.34,197,297.34S205.34,274.71,206.5,271.07Z" fill="#ffbda7" style="transform-origin:197.238px 283.353px"/>
<path class="animable" d="M159.72,252.11c6.32.84,10,2.8,13.73,7.18s18.05,28.28,18.05,28.28-4.88,10.52-18.05,16.07l-16.37-21.46Z" fill="#6366F1" style="transform-origin:174.29px 277.875px"/>
<path class="animable" d="M159.72,252.11c6.32.84,10,2.8,13.73,7.18s18.05,28.28,18.05,28.28-4.88,10.52-18.05,16.07l-16.37-21.46Z" opacity=".15" style="transform-origin:174.29px 277.875px"/>
<path class="animable" d="M197,297.34a53.79,53.79,0,0,0-4.33,15.29S190.85,302,195,294.1Z" fill="#f0997a" style="transform-origin:194.636px 303.365px"/>
<path class="animable" d="m218.61 257.85c0.39 3.85-1.2 9.15-2.61 11.15a12.07 12.07 0 0 0 3.21-5.3c0.69-3.2 0.19-4.61-0.6-5.85z" fill="#f0997a" style="transform-origin:217.768px 263.425px"/>
<path class="animable" d="M169.25,352.51c-13.24,9.4-56.59,12.54-69.29,4.14V255.11l1-.2,12.43-2.62,6.73-1.42,1.71-.36h0l6-1.26,15.64.91h0l4.71.28h0l.46,0s5.44.65,11.09,1.63c.21.19.4.39.61.6h0c3.92,4.23,7.3,15,8.26,26.53.36,4.39.62,11,.82,18.41,0,0,0,.46,0,.69C170,321,169.25,352.51,169.25,352.51Z" fill="#6366F1" style="transform-origin:134.8px 305.389px"/>
<g class="animable" style="transform-origin:134.212px 227.257px">
<path class="animable" d="M159.09,211.79c2.77-6.36.06-14.8-3.26-18.76-4.79-5.73-12.24-8.2-23.48-7.5-8.55.53-16.95,4.08-18.55,12.85-6.87,2.05-6.09,13.33-4.38,18.31,3.47,10.09,10.29,18.88,10.4,24Z" fill="#455a64" style="transform-origin:134.239px 213.052px"/>
<path class="animable" d="m159.08 235.54c-1.35 4.88-4.17 8.45-8.68 9.15a37.43 37.43 0 0 1-7.11 0l0.17 6.21c6.07 5.19 3.85 12-0.2 18.16-5-5.59-10.78-7.59-15.81-9.8a16.1 16.1 0 0 1-7.33-7.1l-0.64-21s-2.76 3.14-7.31 0.17a9.92 9.92 0 0 1-3.08-12.14c2.25-4.76 6.76-2.79 8.15-1.35s3 4.16 4.17 3.78a4.17 4.17 0 0 0 2.79-2.85 25.49 25.49 0 0 0 1.48-9.22 12.59 12.59 0 0 0 3.53-2.72 11.47 11.47 0 0 0 3.06-7.06c9.74-3 20.95-1.61 25 1.52 2.33 4.11 2.41 13.65 2.8 19.15 0.42 6.05 0.15 11.02-0.99 15.1z" fill="#ffbda7" style="transform-origin:134.212px 233.583px"/>
<path class="animable" d="M143.28,244.73c-5-.28-15-2.61-17.68-5.39s-3.81-8.48-3.81-8.48.4,7.19,2.47,10.36,7.28,4.56,10.45,5.35a76.62,76.62,0,0,0,8.67,1.31Z" fill="#f0997a" style="transform-origin:132.585px 239.37px"/>
<path class="animable" d="m143.26 269.1c-2.61-1.6-8.37-8.14-11.24-5.1s-4.39 3.87-6.29 3.31-6.06-4.69-8.79-7.7a17.45 17.45 0 0 1-3.6-7.35 47.47 47.47 0 0 0 3.85-5.35c1.3-2.3 1-2.95 2.68-3.06l0.15 4.34s1 2.37 5.74 5.57 14.13 7.96 17.5 15.34z" fill="#6366F1" style="transform-origin:128.3px 256.475px"/>
<path class="animable" d="m143.26 269.1c-2.61-1.6-8.37-8.14-11.24-5.1s-4.39 3.87-6.29 3.31-6.06-4.69-8.79-7.7a17.45 17.45 0 0 1-3.6-7.35 47.47 47.47 0 0 0 3.85-5.35c1.3-2.3 1-2.95 2.68-3.06l0.15 4.34s1 2.37 5.74 5.57 14.13 7.96 17.5 15.34z" opacity=".15" style="transform-origin:128.3px 256.475px"/>
<path class="animable" d="m143.26 269.1c1.55-1.42 4.08-8 4.75-7.84 1 0.29 2.78 4.85 3.64 3.79 1.36-1.68 0.95-9.36-1.32-12.15s-5.29-5.76-7-6.05l0.12 4.09a16.58 16.58 0 0 1 1.68 6.6c0 2.33-1.55 9.33-1.87 11.56z" fill="#6366F1" style="transform-origin:147.844px 257.975px"/>
<path class="animable" d="m143.26 269.1c1.55-1.42 4.08-8 4.75-7.84 1 0.29 2.78 4.85 3.64 3.79 1.36-1.68 0.95-9.36-1.32-12.15s-5.29-5.76-7-6.05l0.12 4.09a16.58 16.58 0 0 1 1.68 6.6c0 2.33-1.55 9.33-1.87 11.56z" opacity=".15" style="transform-origin:147.844px 257.975px"/>
<path class="animable" d="m140.13 217.33a2 2 0 0 1-2 2.09 2.1 2.1 0 1 1 2-2.09z" fill="#263238" style="transform-origin:138.031px 217.322px"/>
<path class="animable" d="m137.31 210.88-4.08 2.76a2.59 2.59 0 0 1 0.69-3.51 2.41 2.41 0 0 1 3.39 0.75z" fill="#37474f" style="transform-origin:135.067px 211.684px"/>
<path class="animable" d="m156.87 212.77-4.48-2.14a2.38 2.38 0 0 1 3.24-1.22 2.6 2.6 0 0 1 1.24 3.36z" fill="#37474f" style="transform-origin:154.736px 210.969px"/>
<path class="animable" d="m155.36 217.2a2 2 0 0 1-2 2.1 2.1 2.1 0 1 1 2-2.1z" fill="#263238" style="transform-origin:153.261px 217.202px"/>
<polygon class="animable" points="144.76 212.99 146.22 227.49 154 225.14" fill="#f0997a" style="transform-origin:149.38px 220.24px"/>
<path class="animable" d="m140.12 230.86 8.34 1.85a4.2 4.2 0 0 1-5 3.39 4.48 4.48 0 0 1-3.34-5.24z" fill="#b16668" style="transform-origin:144.246px 233.525px"/>
<path class="animable" d="M143.46,236.1c.17,0,.34,0,.52.06a3.89,3.89,0,0,0-3.88-3.79A4.43,4.43,0,0,0,143.46,236.1Z" fill="#f28f8f" style="transform-origin:142.04px 234.265px"/>
</g>
<path class="animable" d="m103 288.1-3 7.38v-40.37s8.62 16.58 3 32.99z" fill="#6366F1" style="transform-origin:102.451px 275.295px"/>
<path class="animable" d="m103 288.1-3 7.38v-40.37s8.62 16.58 3 32.99z" opacity=".15" style="transform-origin:102.451px 275.295px"/>
</g>
<path class="animable" d="M160.27,224.73a24.92,24.92,0,0,1,5.4,2.51,4.76,4.76,0,0,1,1.66,6.46l-2.06-.4s1.06-2.41-.18-3.71-4.85-2.4-4.85-2.4Z" fill="#263238" style="transform-origin:164.105px 229.215px"/>
<path class="animable" d="m166.47 232.37c-1.67-0.81-2.47 0.23-3.65 3.06s-0.37 3.61 1.06 4.17 2.54-0.38 3.42-2.72c0.99-2.64 0.97-3.64-0.83-4.51z" fill="#6366F1" style="transform-origin:165.104px 235.93px"/>
<path class="animable" d="m166.47 232.37c-1.67-0.81-2.47 0.23-3.65 3.06s-0.37 3.61 1.06 4.17 2.54-0.38 3.42-2.72c0.99-2.64 0.97-3.64-0.83-4.51z" opacity=".1" style="transform-origin:165.104px 235.93px"/>
<path class="animable" d="m118.09 189c-5 4.61-9.77 11.16-6.22 26.31a8.25 8.25 0 0 0-2.07 8.55c1.38 4.68 5.87 7.75 10 6.87s6.44-5.39 5.07-10.07c-1-3.5-4.78-6.89-7.87-6.66 0 0-3-6.49-0.19-15.66 3.79-12.52 18.37-13.55 24.79-12.54-2.12-3.05-16.93-2.87-23.51 3.2z" fill="#263238" style="transform-origin:125.484px 207.37px"/>
<path class="animable" d="m125.8 220.47c-1.52-5.19-6.5-8.6-11.12-7.62a7.24 7.24 0 0 0-2 0.75c-0.51 0.28-2.09 1.37-2.4 1.57-2.94 2-4.3 6-3.09 10.1 1.52 5.19 6.49 8.6 11.11 7.62a7.33 7.33 0 0 0 2.39-1c0.37-0.24 1.84-1.22 2.21-1.48 2.8-1.96 4.1-5.89 2.9-9.94z" fill="#6366F1" style="transform-origin:116.498px 222.87px"/>
<path class="animable" d="m125.8 220.47c-1.52-5.19-6.5-8.6-11.12-7.62a7.24 7.24 0 0 0-2 0.75c-0.51 0.28-2.09 1.37-2.4 1.57-2.94 2-4.3 6-3.09 10.1 1.52 5.19 6.49 8.6 11.11 7.62a7.33 7.33 0 0 0 2.39-1c0.37-0.24 1.84-1.22 2.21-1.48 2.8-1.96 4.1-5.89 2.9-9.94z" opacity=".3" style="transform-origin:116.498px 222.87px"/>
<path class="animable" d="m123.91 221.73c-1.52-5.18-6.5-8.59-11.12-7.61s-7.13 6-5.61 11.15 6.49 8.6 11.11 7.62 7.14-5.97 5.62-11.16z" fill="#6366F1" style="transform-origin:115.544px 223.504px"/>
<path class="animable" d="m123.91 221.73c-1.52-5.18-6.5-8.59-11.12-7.61s-7.13 6-5.61 11.15 6.49 8.6 11.11 7.62 7.14-5.97 5.62-11.16z" opacity=".1" style="transform-origin:115.544px 223.504px"/>
<path class="animable" d="m119.49 222.67c-0.72-2.45-3.06-4.06-5.24-3.6s-3.37 2.82-2.65 5.27 3.06 4 5.24 3.59 3.37-2.82 2.65-5.26z" fill="#37474f" style="transform-origin:115.545px 223.494px"/>
</g>
<g class="animable" style="transform-origin:188.37px 174.942px">
<path class="animable" d="M177.27,165.06a2.1,2.1,0,0,0-.58.48,2.79,2.79,0,0,0-.38.62,3.81,3.81,0,0,0-.22.7c0,.24-.08.49-.1.74s0,.34,0,.58,0,.49,0,.74,0,.51,0,.75,0,.42,0,.55a3.74,3.74,0,0,0,.1.64,1.21,1.21,0,0,0,.22.44.55.55,0,0,0,.39.18,1,1,0,0,0,.57-.18,2.54,2.54,0,0,0,.5-.38,2.63,2.63,0,0,0,.4-.53,2.85,2.85,0,0,0,.28-.69,3.76,3.76,0,0,0,.1-.86l-.85.49a.15.15,0,0,1-.2,0,.34.34,0,0,1-.08-.25v-1.65a.89.89,0,0,1,.08-.35.51.51,0,0,1,.2-.23l2.45-1.42a.15.15,0,0,1,.19,0,.34.34,0,0,1,.08.25v2a7.81,7.81,0,0,1-.24,1.94,8,8,0,0,1-.67,1.73,6.76,6.76,0,0,1-1,1.43,5.1,5.1,0,0,1-1.24,1,2.69,2.69,0,0,1-1.3.42,1.47,1.47,0,0,1-1-.35,2.13,2.13,0,0,1-.62-1,5.1,5.1,0,0,1-.25-1.49c0-.41,0-.87,0-1.36s0-1,0-1.41a7.84,7.84,0,0,1,.24-1.77,8.33,8.33,0,0,1,.63-1.71,7,7,0,0,1,1-1.48,5.21,5.21,0,0,1,1.31-1.09,2.64,2.64,0,0,1,1.28-.41,1.57,1.57,0,0,1,1,.25,1.82,1.82,0,0,1,.62.72,2.31,2.31,0,0,1,.24,1,.48.48,0,0,1-.06.28.48.48,0,0,1-.16.2l-1.35.77q-.15.09-.24,0l-.16-.18a.81.81,0,0,0-.39-.29C177.85,164.8,177.6,164.87,177.27,165.06Z" fill="#455a64" style="transform-origin:177.261px 168.162px"/>
<path class="animable" d="M183,167.15a1.28,1.28,0,0,0,.08.54.5.5,0,0,0,.22.25.41.41,0,0,0,.29,0,1,1,0,0,0,.32-.12,2.16,2.16,0,0,0,.48-.37,1.9,1.9,0,0,0,.3-.44,1.86,1.86,0,0,1,.16-.27.41.41,0,0,1,.17-.14l1.32-.76c.15-.09.22,0,.22.21a2.53,2.53,0,0,1-.15.66,6.6,6.6,0,0,1-1.3,2.22,4.63,4.63,0,0,1-1.2,1,2.37,2.37,0,0,1-1.17.39,1.13,1.13,0,0,1-.86-.34,2.14,2.14,0,0,1-.53-1,6.52,6.52,0,0,1-.18-1.66,8.81,8.81,0,0,1,.18-1.78,7.32,7.32,0,0,1,.53-1.64,6.21,6.21,0,0,1,.86-1.37,4.27,4.27,0,0,1,1.17-1,2.05,2.05,0,0,1,1.26-.35,1.32,1.32,0,0,1,.85.5,2.74,2.74,0,0,1,.48,1.09,7.27,7.27,0,0,1,.14,1.42v.44a.68.68,0,0,1-.08.34.48.48,0,0,1-.19.24Zm.91-3.52a1.53,1.53,0,0,0-.65.76,3.06,3.06,0,0,0-.26,1l1.82-1.06a1.37,1.37,0,0,0-.26-.72C184.44,163.47,184.22,163.46,183.94,163.63Z" fill="#455a64" style="transform-origin:183.904px 165.749px"/>
<path class="animable" d="M190,163.13a.86.86,0,0,0,.11.5c.06.09.18.09.33,0l.81-.47a.15.15,0,0,1,.19,0,.3.3,0,0,1,.08.25V165a.74.74,0,0,1-.08.35.5.5,0,0,1-.19.23l-1,.56a2,2,0,0,1-.87.29.91.91,0,0,1-.66-.23,1.66,1.66,0,0,1-.43-.72,4.08,4.08,0,0,1-.15-1.2v-2.62l-.75.43a.14.14,0,0,1-.19,0,.34.34,0,0,1-.08-.25v-1.57a.89.89,0,0,1,.08-.35.5.5,0,0,1,.19-.23l.75-.44V156.7a.84.84,0,0,1,.08-.34.61.61,0,0,1,.19-.24l1.28-.73a.14.14,0,0,1,.19,0,.3.3,0,0,1,.08.25v2.54l1.15-.66a.15.15,0,0,1,.19,0,.33.33,0,0,1,.08.25v1.58a.71.71,0,0,1-.08.34.53.53,0,0,1-.19.24l-1.15.66Z" fill="#455a64" style="transform-origin:189.321px 160.892px"/>
<path class="animable" d="M196.33,153.24a.89.89,0,0,1-.08.35.51.51,0,0,1-.2.23l-1.27.74a.16.16,0,0,1-.2,0,.37.37,0,0,1-.08-.25v-1.58a.84.84,0,0,1,.08-.34.55.55,0,0,1,.2-.24l1.27-.73a.15.15,0,0,1,.2,0,.34.34,0,0,1,.08.25Zm0,9a.89.89,0,0,1-.08.35.51.51,0,0,1-.2.23l-1.27.74a.16.16,0,0,1-.2,0,.37.37,0,0,1-.08-.25V156a.89.89,0,0,1,.08-.35.51.51,0,0,1,.2-.23l1.27-.74a.16.16,0,0,1,.2,0,.37.37,0,0,1,.08.25Z" fill="#455a64" style="transform-origin:195.415px 157.488px"/>
<path class="animable" d="M202.9,158.42a.71.71,0,0,1-.08.34.6.6,0,0,1-.19.24l-1.28.73a.14.14,0,0,1-.19,0,.3.3,0,0,1-.08-.25v-3.95a1.65,1.65,0,0,0-.21-1c-.15-.19-.37-.2-.67,0a1.54,1.54,0,0,0-.67.79,3.21,3.21,0,0,0-.2,1.2v3.94a.76.76,0,0,1-.09.35.45.45,0,0,1-.19.23l-1.27.74a.15.15,0,0,1-.2,0,.34.34,0,0,1-.08-.25v-7.26a.89.89,0,0,1,.08-.35.51.51,0,0,1,.2-.23L199,153c.08,0,.14,0,.19,0a.33.33,0,0,1,.09.25v.36c.05-.13.12-.28.2-.44a4.09,4.09,0,0,1,.29-.48,5.39,5.39,0,0,1,.4-.45,3.16,3.16,0,0,1,.53-.39,2,2,0,0,1,.9-.3.87.87,0,0,1,.69.24,1.89,1.89,0,0,1,.45.85,5.58,5.58,0,0,1,.16,1.5Z" fill="#455a64" style="transform-origin:200.201px 156.682px"/>
<path class="animable" d="M175,187.55a.87.87,0,0,0,.1.5c.07.09.18.09.34,0l.81-.47a.15.15,0,0,1,.19,0,.37.37,0,0,1,.08.25v1.58a.84.84,0,0,1-.08.34.48.48,0,0,1-.19.24l-1,.55a1.69,1.69,0,0,1-.86.29.9.9,0,0,1-.66-.22,1.49,1.49,0,0,1-.43-.72,4.08,4.08,0,0,1-.15-1.2v-2.62l-.75.43c-.08,0-.14,0-.19,0a.33.33,0,0,1-.09-.25v-1.58a.72.72,0,0,1,.09-.34.48.48,0,0,1,.19-.24l.75-.43v-2.54a.74.74,0,0,1,.08-.35.5.5,0,0,1,.19-.23l1.28-.74a.14.14,0,0,1,.19,0,.33.33,0,0,1,.08.24v2.55l1.15-.66a.14.14,0,0,1,.19,0,.36.36,0,0,1,.08.25v1.57a.89.89,0,0,1-.08.35.57.57,0,0,1-.19.23L175,185Z" fill="#455a64" style="transform-origin:174.32px 185.298px"/>
<path class="animable" d="m182.65 181.64v0.6s0 0.44 0 0.6a6.89 6.89 0 0 1-0.22 1.54 7.35 7.35 0 0 1-0.56 1.46 5.91 5.91 0 0 1-0.86 1.27 4.43 4.43 0 0 1-1.11 0.93 2.31 2.31 0 0 1-1.13 0.36 1.22 1.22 0 0 1-0.85-0.28 1.87 1.87 0 0 1-0.56-0.82 4 4 0 0 1-0.22-1.28v-0.59s0-0.45 0-0.61a6.7 6.7 0 0 1 0.21-1.52 7.21 7.21 0 0 1 0.56-1.47 6.37 6.37 0 0 1 0.86-1.28 4.36 4.36 0 0 1 1.13-0.94 2.33 2.33 0 0 1 1.11-0.35 1.35 1.35 0 0 1 0.87 0.28 1.85 1.85 0 0 1 0.55 0.82 4 4 0 0 1 0.22 1.28zm-3.65 3.25a1 1 0 0 0 0.28 0.77c0.17 0.13 0.38 0.12 0.66 0a1.8 1.8 0 0 0 0.65-0.71 2.74 2.74 0 0 0 0.28-1.09v-0.54s0-0.37 0-0.52a1 1 0 0 0-0.28-0.77 0.56 0.56 0 0 0-0.65 0 1.75 1.75 0 0 0-0.66 0.71 2.74 2.74 0 0 0-0.28 1.09v0.55s0 0.37 0 0.51z" fill="#455a64" style="transform-origin:179.895px 183.831px"/>
<path class="animable" d="M183.55,178.08a.84.84,0,0,1,.08-.34.49.49,0,0,1,.2-.24l1.27-.74a.15.15,0,0,1,.19,0,.3.3,0,0,1,.09.25V181a1.84,1.84,0,0,0,.19,1c.13.19.34.21.64,0a1.49,1.49,0,0,0,.63-.78A3.52,3.52,0,0,0,187,180v-4a.73.73,0,0,1,.08-.34.6.6,0,0,1,.19-.24l1.28-.73a.14.14,0,0,1,.19,0,.36.36,0,0,1,.08.25v7.27a.84.84,0,0,1-.08.34.48.48,0,0,1-.19.24l-1.18.68a.14.14,0,0,1-.19,0,.34.34,0,0,1-.08-.25v-.35c-.06.14-.12.29-.2.44a3,3,0,0,1-.29.47,4,4,0,0,1-.4.45,3.44,3.44,0,0,1-.54.4c-.65.37-1.18.39-1.56,0a3.27,3.27,0,0,1-.59-2.36Z" fill="#455a64" style="transform-origin:186.155px 179.784px"/>
<path class="animable" d="M191.64,176.5a4.79,4.79,0,0,0,0,.56,4.19,4.19,0,0,0,0,.53,1,1,0,0,0,.27.75c.16.14.38.12.65,0a1.62,1.62,0,0,0,.51-.45,2.25,2.25,0,0,0,.29-.58,1.39,1.39,0,0,1,.12-.28.48.48,0,0,1,.17-.2L195,176a.15.15,0,0,1,.2,0,.27.27,0,0,1,.07.25,4.58,4.58,0,0,1-.13.81,5.77,5.77,0,0,1-.42,1.2,6.85,6.85,0,0,1-.82,1.3,4.67,4.67,0,0,1-1.32,1.12,2.57,2.57,0,0,1-1.06.36,1.33,1.33,0,0,1-.86-.22,1.75,1.75,0,0,1-.59-.79,4.2,4.2,0,0,1-.24-1.36c0-.15,0-.35,0-.61s0-.47,0-.63a7.37,7.37,0,0,1,.24-1.63,6.84,6.84,0,0,1,.59-1.47,6.06,6.06,0,0,1,.86-1.22,4.71,4.71,0,0,1,1.06-.86,2.35,2.35,0,0,1,1.32-.41,1.38,1.38,0,0,1,.82.36,1.6,1.6,0,0,1,.42.71,2.52,2.52,0,0,1,.13.66.61.61,0,0,1-.07.34.71.71,0,0,1-.2.24l-1.33.76c-.07,0-.13,0-.17,0a.44.44,0,0,1-.12-.15.5.5,0,0,0-.29-.25.75.75,0,0,0-.51.15,1.69,1.69,0,0,0-.65.72A2.68,2.68,0,0,0,191.64,176.5Z" fill="#455a64" style="transform-origin:192.554px 176.443px"/>
<path class="animable" d="M201.52,175a.74.74,0,0,1-.08.35.45.45,0,0,1-.19.23l-1.27.74a.16.16,0,0,1-.2,0,.38.38,0,0,1-.08-.26v-3.94a1.6,1.6,0,0,0-.21-1c-.14-.19-.37-.2-.67,0a1.46,1.46,0,0,0-.66.78,3.25,3.25,0,0,0-.21,1.2V177a.88.88,0,0,1-.08.34.61.61,0,0,1-.2.24l-1.27.73a.14.14,0,0,1-.19,0,.32.32,0,0,1-.08-.25V167.86a.74.74,0,0,1,.08-.35.45.45,0,0,1,.19-.23l1.27-.74a.16.16,0,0,1,.2,0,.37.37,0,0,1,.08.25v3.33a4.31,4.31,0,0,1,.54-.95,2.58,2.58,0,0,1,.84-.78,2.07,2.07,0,0,1,.89-.31.91.91,0,0,1,.69.25,1.75,1.75,0,0,1,.45.85,5.55,5.55,0,0,1,.16,1.49Z" fill="#455a64" style="transform-origin:198.825px 172.426px"/>
<path class="animable" d="M204.5,169.9a.71.71,0,0,1-.08.34.48.48,0,0,1-.19.24l-1.28.73a.14.14,0,0,1-.19,0,.36.36,0,0,1-.08-.25v-6.72a.81.81,0,0,1,.08-.34.54.54,0,0,1,.19-.24l1.28-.74a.14.14,0,0,1,.19,0,.3.3,0,0,1,.08.25Zm0,3.35a.74.74,0,0,1-.08.35.5.5,0,0,1-.19.23l-1.28.74a.15.15,0,0,1-.19,0,.37.37,0,0,1-.08-.25v-1.58a.81.81,0,0,1,.08-.34.54.54,0,0,1,.19-.24l1.28-.74a.15.15,0,0,1,.19,0,.3.3,0,0,1,.08.25Z" fill="#455a64" style="transform-origin:203.591px 168.743px"/>
<path class="animable" d="M170.19,209.39a1.3,1.3,0,0,1-.92-2.21c1.86-1.9,3-4.57,3.54-8.15-6.26-1.28-10-6.71-10-14.59,0-14,11.37-31.89,25.35-40h0c7.44-4.29,14.53-5.13,19.45-2.29,4.08,2.35,6.32,7.05,6.32,13.22,0,14-11.37,31.88-25.35,40a33.15,33.15,0,0,1-5.82,2.69c-3.34,7.44-8.49,10.25-12.24,11.29A1.06,1.06,0,0,1,170.19,209.39Zm18.41-64.17c-13.74,7.93-24.92,25.53-24.92,39.22,0,7.72,3.53,12.76,9.68,13.83l.4.07,0,.4c-.52,4-1.77,6.93-3.84,9a.46.46,0,0,0,.45.76c3.59-1,8.55-3.72,11.76-11l.08-.17.18-.06a33.18,33.18,0,0,0,5.84-2.68c13.74-7.94,24.92-25.53,24.92-39.22,0-5.86-2.09-10.29-5.89-12.49-4.65-2.68-11.43-1.84-18.61,2.3Z" fill="#6366F1" style="transform-origin:188.37px 174.942px"/>
</g>
</g>
<g class="animable" style="transform-origin:348.729px 253.168px">
<g class="animable" style="transform-origin:348.729px 253.168px">
<path class="animable" d="M323,396.53a7.81,7.81,0,0,0-.1,4.11c.39.82,2.85,3.54,7.87,4.52s11.93,0,14.9-.18,12.3,1,15.26,1.36c4.66.63,8.25-.39,10-2.08a3.1,3.1,0,0,0,.7-2.45,12.45,12.45,0,0,0-.5-3.32Z" fill="#263238" style="transform-origin:347.167px 401.529px"/>
<path class="animable" d="M370.37,393.61c.09.39.17.77.25,1.17a19.54,19.54,0,0,1,.43,6.05c-.6,1.47-2.25,2.28-3.58,2.7-3.5,1.12-6.18.94-10.07.2a71.19,71.19,0,0,0-11.81-.72c-3.06.2-7.27.79-10.33.51a24.85,24.85,0,0,1-7.61-1.55c-2-.88-4.13-2-4.62-4.1-.61-4.42,1.25-6.38,3.35-7.61s5.08-1.14,8.27-1.36c2.88-.19,5-.19,7.55-.39a36.67,36.67,0,0,0,6.6-.92c1.93-.61,3.92-3.07,4.74-3.16,0,0,12.84-.1,14.07,0,1.41.12,1.85,4.51,2,5.46.14.75.16,1.55.36,2.27C370.13,392.64,370.25,393.12,370.37,393.61Z" fill="#37474f" style="transform-origin:347.016px 394.357px"/>
<path class="animable" d="m330.79 402.93c-0.4-3.19-0.93-10.1 4.94-14.09h0.75a14.61 14.61 0 0 0-8.12 0c-4.7 1.25-6.78 5.05-5.61 9.06 0-0.04 1.05 3.84 8.04 5.03z" fill="#fafafa" style="transform-origin:329.455px 395.597px"/>
<path class="animable" d="m347.93 387.83c-1.9 1.68-2.56 5.51-2.56 5.51-0.24 1.43-2.84 1.64-2.59 0.26a15 15 0 0 1 2.24-5.33 4.4 4.4 0 0 1 2.91-0.44z" fill="#fafafa" style="transform-origin:345.347px 391.141px"/>
<path class="animable" d="m342.61 388.48a9.25 9.25 0 0 0-2.67 5.22c-0.26 1.37-2.43 1.35-2.28 0 0 0 0.26-3.39 2.28-5a2.89 2.89 0 0 1 2.67-0.22z" fill="#fafafa" style="transform-origin:340.131px 391.486px"/>
<path class="animable" d="M376.26,355.59c-.19,2.25-.49,4.28.43,6.76,1.32,3.57,4.12,5.2,5.76,6.6a47.91,47.91,0,0,1,4.78,5.51c1.61,2,2,3.14,4.46,5.28a8.73,8.73,0,0,0,8.59,1.21c2.1-.89,2.82-1.6,2.69-4.82s-10.37-4.31-10.37-4.31Z" fill="#263238" style="transform-origin:389.521px 368.581px"/>
<path class="animable" d="m401.65 366.55c0.87 0.31 1.09 1.9 1.23 5 0.1 2.39 1.15 5.87-2.3 7.37-2.78 1.22-7.23 0.41-9.11-1.83-2.35-2.81-3.93-5.27-7.28-8.69-2.91-3-5.93-4-7.22-9.9-0.83-3.81-0.18-5.39 2.52-6.48 3.7-1.5 9.53 3.41 12.44 4.18 2.5 0.71 8.85 10.03 9.72 10.35z" fill="#37474f" style="transform-origin:389.87px 365.612px"/>
<path class="animable" d="M391.93,356.24c-.16,0-.33-.1-.5-.16a9.56,9.56,0,0,0-8,5c-.49,1,1,1.85,1.94,1,2.07-3.91,6.33-4.78,8-5A4.35,4.35,0,0,0,391.93,356.24Z" fill="#fafafa" style="transform-origin:388.352px 359.254px"/>
<path class="animable" d="m394.32 358a9.45 9.45 0 0 0-7.46 5c-0.49 1 1 1.85 1.94 1a9.73 9.73 0 0 1 6.69-4.75c-0.4-0.41-0.79-0.84-1.17-1.25z" fill="#fafafa" style="transform-origin:391.127px 361.174px"/>
<path class="animable" d="m378.67 362.93s0.29-7.06 10.32-8l0.57 0.31a8.54 8.54 0 0 0-4.93-3.62c-3.33-0.86-6 0-7.72 2.11s0.03 7.82 1.76 9.2z" fill="#fafafa" style="transform-origin:382.882px 357.11px"/>
<path class="animable" d="M405.07,316.62c-1-11-1.07-18.31-1.07-18.31s0-16,.4-31.11c.22-8.4.07-14.1.21-20.74a106,106,0,0,0-1.75-22s-51.46-10.24-52.1,8.64c-.77,22.63-.68,61.31-1.55,76.09-.49,8.3.35,15.17.87,31.29.43,13.36.3,46.26.3,46.26,5.67,7.78,19.05,1.85,19.05,1.85s4.14-46.18,4.74-55.73c.65-10.26-.43-15.46-.43-15.46l5.31-47.81s.4,15.34.86,23.64S381.05,308,383,323.42c2,16.15,5.28,45.41,5.28,45.41,6.86,4.08,14.85.81,14.85.81S406.11,328.28,405.07,316.62Z" fill="#6366F1" style="transform-origin:377.176px 306.22px"/>
<path class="animable" d="M405.07,316.62c-1-11-1.07-18.31-1.07-18.31s0-16,.4-31.11c.22-8.4.07-14.1.21-20.74a106,106,0,0,0-1.75-22s-51.46-10.24-52.1,8.64c-.77,22.63-.68,61.31-1.55,76.09-.49,8.3.35,15.17.87,31.29.43,13.36.3,46.26.3,46.26,5.67,7.78,19.05,1.85,19.05,1.85s4.14-46.18,4.74-55.73c.65-10.26-.43-15.46-.43-15.46l5.31-47.81s.4,15.34.86,23.64S381.05,308,383,323.42c2,16.15,5.28,45.41,5.28,45.41,6.86,4.08,14.85.81,14.85.81S406.11,328.28,405.07,316.62Z" opacity=".4" style="transform-origin:377.176px 306.22px"/>
<path class="animable" d="m398 250.57s-2.1 7.69-14.85 12.85c0 0-3.46 27.84-3.43 27.26l-0.68-21.08 1.16-8.84s11.96-2.53 17.8-10.19z" opacity=".25" style="transform-origin:388.52px 270.629px"/>
<path class="animable" d="M397.09,156.81c5.14,0,9.77,1.52,13.87,14.29s7.64,29.47,8,33.6c.44,5.36.16,7.67-4,11.56s-15,13.13-15,13.13l-3.6-15.29,8.34-9.4Z" fill="#6366F1" style="transform-origin:407.736px 193.1px"/>
<path class="animable" d="M397.09,156.81c5.14,0,9.77,1.52,13.87,14.29s7.64,29.47,8,33.6c.44,5.36.16,7.67-4,11.56s-15,13.13-15,13.13l-3.6-15.29,8.34-9.4Z" fill="#fff" opacity=".6" style="transform-origin:407.736px 193.1px"/>
<polygon class="animable" points="371.15 152.21 373.16 170.02 389.72 166.26 387.58 142.47" fill="#b16668" style="transform-origin:380.435px 156.245px"/>
<path class="animable" d="m358.7 130.39s-4.42 6.71-3.92 7.36 3.76 1.26 3.76 1.26z" fill="#9a4a4d" style="transform-origin:356.72px 134.7px"/>
<path class="animable" d="m360.66 134.35a5 5 0 1 1 5-5 5 5 0 0 1-5 5zm0-8.89a3.89 3.89 0 1 0 3.89 3.89 3.9 3.9 0 0 0-3.89-3.89z" fill="#263238" style="transform-origin:360.66px 129.35px"/>
<path class="animable" d="m371 112.77c-8.5 1.79-11.55 5.19-12.35 18.69-0.84 14.11 1.2 18.88 3.05 20.78 1.25 1.29 8.2 1.52 11.71 0.55 4.39-1.21 14.31-4.73 19-11.82 5.47-8.35 6.9-19.67 1.05-24.31-8.31-6.54-19.04-4.66-22.46-3.89z" fill="#b16668" style="transform-origin:377.843px 132.653px"/>
<path class="animable" d="m371.26 153.19-0.4-2.6a16.83 16.83 0 0 1-8.71 2c1.62 0.77 5.85 1 9.11 0.6z" fill="#9a4a4d" style="transform-origin:366.705px 151.987px"/>
<polygon class="animable" points="356.51 128.44 371.63 130.4 371.02 131.46 356.51 129.58" fill="#263238" style="transform-origin:364.07px 129.95px"/>
<path class="animable" d="M357.75,118.22a4.21,4.21,0,0,0,1.92-.12,3,3,0,0,0,1,3.54,4.27,4.27,0,0,0,3.81.51,3.71,3.71,0,0,0-.42,2.63,4.25,4.25,0,0,0,4.4,3.17c.09,2,.12,3.91,2.23,4.81,0,0,1.34-5.22,5.74-4.56s5,6.3,2.23,9.73-5.35,2.13-5.39,2.11a9.15,9.15,0,0,0,.7,2.49,10.15,10.15,0,0,0,3.72,4.1,20.07,20.07,0,0,0,10.59,2.87c1.38-4,3.65-7,6.05-10.5,1.89-2.74,4.29-5.86,5.24-9.05a17.86,17.86,0,0,0,.11-10.63c-1.05-3.16-2.28-5.56-5.72-6.41-.78-4.23-5-6.46-8.84-8.4a14.22,14.22,0,0,0-12.44-.1c-1.42-1.5-2.54-3.3-4.51-4.17a4.1,4.1,0,0,0-4.82.86,6.1,6.1,0,0,0-.76,4.05,9.49,9.49,0,0,0-4.85.42,5,5,0,0,0-3.12,3.53,3.46,3.46,0,0,0,2.17,3.92,3,3,0,0,0-1.1,3.44A2.59,2.59,0,0,0,357.75,118.22Z" fill="#263238" style="transform-origin:377.493px 124.655px"/>
<path class="animable" d="M370.64,135.73l.15-5.9a3,3,0,1,0-.15,5.9Z" fill="#263238" style="transform-origin:368.982px 132.766px"/>
<path class="animable" d="m405.37 164.91c-1.79-4.57-5.66-8.51-11.93-8.7h-4.59c-0.71 2.91-11.75 3.85-17 2-2.29 0.6-13.41 3.5-15.32 4.14-5.46 1.81-5.53 8.77-5.5 24.93 0 15.06 0 32.94-0.82 51.79 9.6 5.06 23.54 6.36 34.1 5.29 16.58-1.67 20.57-6.63 20.57-6.63a237.34 237.34 0 0 1-0.6-26.09c0.2-7.24 1.73-16.09 2.27-23.92s0.5-18.54-1.18-22.81z" fill="#6366F1" style="transform-origin:378.534px 200.459px"/>
<path class="animable" d="m405.37 164.91c-1.79-4.57-5.66-8.51-11.93-8.7h-4.59c-0.71 2.91-11.75 3.85-17 2-2.29 0.6-13.41 3.5-15.32 4.14-5.46 1.81-5.53 8.77-5.5 24.93 0 15.06 0 32.94-0.82 51.79 9.6 5.06 23.54 6.36 34.1 5.29 16.58-1.67 20.57-6.63 20.57-6.63a237.34 237.34 0 0 1-0.6-26.09c0.2-7.24 1.73-16.09 2.27-23.92s0.5-18.54-1.18-22.81z" fill="#fff" opacity=".3" style="transform-origin:378.534px 200.459px"/>
<path class="animable" d="M298.85,141.51c-.93-2.12.13-5.58.53-7.13.66-2.56.27-6.09.43-7.12.39-2.64-1.38-3.17-2.69-1.41-1.19,1.59-1.19,5.07-2.08,5.29s-3.45-6.57-4.79-10.53-1.68-6.49-3.88-6c-1.59.36-1.51,2.41-.73,5.66a34.68,34.68,0,0,1,1,4.27c0,.54-.79.62-1.15.74-.68.24-1.85.6-2.2,1.26a5.91,5.91,0,0,1-.54,1.1c-.58.73-1.77.7-2.39,1.39-.46.5-.5,1.25-.87,1.82-.24.36-.61.63-.84,1a3,3,0,0,0-.07,2.48,20.79,20.79,0,0,0,4.18,7c1.5,1.89,3.86,4.95,4.72,6.3,2.86,4.48,13.41,21.61,18.62,28.35,1.11,1.43,2.1,2.75,4.48,3.39,6,1.6,42.6,4.77,42.6,4.77,10.6.22,14.29-19.1,5.25-20.06,0,0-7.34-.18-16.13-.25-9.4-.09-25.15-.49-25.15-.49S299.59,143.19,298.85,141.51Z" fill="#b16668" style="transform-origin:320.944px 149.346px"/>
<path class="animable" d="M359,162.44c-5.43-.21-41.23.09-41.23.09l-14.9-15.88a14.52,14.52,0,0,1-10.8,8.3s6.48,11.82,10.2,17.25c3.42,5,4.24,7.55,9.54,8.58s38.87,4.88,41.78,4.78,7.68-.61,10.7-9.1C366.92,169,364.5,162.66,359,162.44Z" fill="#6366F1" style="transform-origin:328.713px 166.106px"/>
<path class="animable" d="M359,162.44c-5.43-.21-41.23.09-41.23.09l-14.9-15.88a14.52,14.52,0,0,1-10.8,8.3s6.48,11.82,10.2,17.25c3.42,5,4.24,7.55,9.54,8.58s38.87,4.88,41.78,4.78,7.68-.61,10.7-9.1C366.92,169,364.5,162.66,359,162.44Z" fill="#fff" opacity=".6" style="transform-origin:328.713px 166.106px"/>
</g>
</g>
</svg>
