<svg width="153" height="56" viewBox="0 0 153 56" fill="none" xmlns="http://www.w3.org/2000/svg">
<path fill-rule="evenodd" clip-rule="evenodd" d="M90.6033 23.0822C70.9097 28.9478 51.4067 35.5201 32.2108 42.8062C23.0844 46.2703 12.1929 49.2644 3.89727 54.5754C3.4843 54.8414 3.68766 55.2286 3.70917 55.267C3.75275 55.3457 3.91481 55.6027 4.27879 55.5138C4.31849 55.5046 4.58323 55.3868 4.685 55.343C7.26354 54.2271 9.81556 53.0551 12.4016 51.9582C21.3291 48.1671 30.3643 44.6504 39.444 41.2377C51.4952 36.7073 63.7872 32.6213 76.0404 28.6735C82.7475 26.513 89.7705 24.8454 96.4288 22.4318C98.92 21.7075 101.415 20.9949 103.912 20.2921C114.353 17.3584 124.885 14.787 135.452 12.3642C138.85 11.585 141.458 11.0458 144.772 10.2396C146.03 9.93414 148.014 9.40508 149.394 9.03535C149.597 8.98187 150.113 8.83916 150.327 8.78036C150.349 8.77815 150.371 8.77202 150.394 8.76533C150.476 8.74192 150.514 8.72489 150.522 8.72266C150.968 8.52139 150.799 8.09255 150.768 8.02924C150.763 8.01607 150.586 7.66363 150.181 7.76417C150.084 7.78756 149.396 7.97932 149.131 8.05065C147.759 8.41813 145.782 8.94497 144.53 9.25074C141.222 10.0553 138.616 10.5939 135.224 11.3714C124.641 13.7986 114.093 16.3726 103.637 19.3107C102.36 19.6702 101.081 20.0322 99.8057 20.3976C99.7308 20.2981 99.5992 20.1999 99.3722 20.2052C99.1601 20.2105 97.7324 20.5684 97.1735 20.6789C93.0375 21.4966 93.1614 21.4783 88.6376 22.4721C81.7859 23.9764 80.7336 24.1743 73.6801 25.9947C60.8675 29.3007 48.1468 32.9514 35.4317 36.6069C29.155 38.4137 22.5501 40.7549 15.9463 41.7774C17.9777 40.9317 20.0359 40.1505 22.083 39.3449C29.0729 36.5952 36.1446 34.1105 43.2766 31.7485C60.3848 26.083 77.6459 20.8508 95.2418 16.92C91.5669 18.0049 87.9074 19.1362 84.2376 20.2387C69.3002 24.7306 54.1085 28.8795 39.4643 34.282C39.2023 34.3799 39.0678 34.6726 39.1638 34.9356C39.2605 35.2005 39.5548 35.335 39.8173 35.2391C54.4419 29.8422 69.6127 25.7014 84.5305 21.215C90.0731 19.5494 95.5954 17.8197 101.173 16.2777C103.088 15.7493 105.018 15.2759 106.934 14.7554C107.314 14.6538 108.308 14.4512 108.438 14.3803C108.725 14.2242 108.727 13.9778 108.715 13.8605C108.706 13.791 108.627 13.3978 108.119 13.3944C104.646 13.3703 98.7428 15.0984 95.5749 15.8014C77.7545 19.7537 60.2775 25.0453 42.9563 30.7799C35.8072 33.1489 28.7185 35.6407 21.7096 38.3979C19.2608 39.3603 16.7966 40.291 14.3805 41.3311C13.9905 41.4994 13.1023 41.835 12.6849 42.0408C12.5104 42.1265 12.3908 42.2115 12.3415 42.2615C12.1494 42.4561 12.1619 42.656 12.1982 42.7835C12.2242 42.882 12.3636 43.2154 12.8698 43.1729C20.5833 42.5253 28.3721 39.6986 35.7129 37.5866C48.4202 33.9333 61.1311 30.2854 73.9358 26.9817C80.9717 25.1663 82.0195 24.9675 88.8575 23.4671C89.5321 23.3174 90.1037 23.1927 90.6033 23.0822Z" fill="#919295"/>
</svg>
